<svg width="250" height="258" viewBox="0 0 250 258" fill="none" xmlns="http://www.w3.org/2000/svg">
<path fill-rule="evenodd" clip-rule="evenodd" d="M249.93 117.951C249.93 117.933 249.936 117.923 249.936 117.905L248.425 106.213C248.422 106.2 248.413 106.191 248.411 106.178C248.394 106.073 248.349 105.979 248.311 105.878C248.28 105.807 248.267 105.725 248.228 105.656C248.19 105.596 248.134 105.55 248.084 105.49C248.014 105.405 247.945 105.314 247.856 105.248C247.848 105.242 247.844 105.23 247.835 105.226L246.108 104.001C246.09 103.99 246.075 103.99 246.058 103.98C246.046 103.972 246.036 103.958 246.025 103.947L244.19 102.833C244.154 102.813 244.12 102.813 244.086 102.795C244.049 102.775 244.028 102.743 243.991 102.731L242.048 101.954C242.036 101.951 242.027 101.951 242.016 101.948C242.004 101.942 241.994 101.934 241.983 101.928L240.039 101.262C240.026 101.255 240.013 101.262 240.001 101.255C239.988 101.254 239.982 101.244 239.971 101.241L238.027 100.685C238.01 100.679 237.994 100.685 237.975 100.683C237.958 100.677 237.944 100.663 237.925 100.662L235.783 100.22L233.732 99.7748C233.676 99.7608 233.63 99.7766 233.574 99.7722C233.53 99.7669 233.492 99.7449 233.445 99.7449H229.236C229.208 99.7449 229.189 99.7581 229.166 99.7581C229.139 99.7608 229.116 99.7502 229.09 99.7528L227.04 99.9754C227.019 99.9772 227.002 99.993 226.982 99.9948C226.963 99.9974 226.938 99.9895 226.918 99.9948L224.76 100.441C224.743 100.443 224.732 100.454 224.715 100.458C224.701 100.465 224.688 100.458 224.671 100.46L224.532 100.5L224.126 97.8298C224.114 97.7647 224.075 97.7128 224.059 97.6512C224.04 97.5835 224.04 97.5078 224.008 97.4427L220.248 89.2983L221.045 88.8435L222.946 87.8635C222.96 87.8573 222.965 87.8432 222.978 87.8371C222.986 87.8309 222.997 87.8353 223.005 87.8292L224.732 86.8254C224.775 86.8034 224.794 86.7656 224.833 86.7374C224.877 86.7058 224.923 86.6917 224.966 86.6583L226.681 85.1073C226.684 85.1073 226.687 85.1073 226.689 85.1056L228.309 83.6584C228.32 83.6461 228.326 83.6259 228.339 83.6144C228.352 83.6021 228.37 83.596 228.382 83.5863L229.785 82.1392C229.806 82.1172 229.811 82.0873 229.831 82.0714C229.848 82.0512 229.873 82.0433 229.889 82.0239L231.184 80.3533C231.196 80.3401 231.196 80.3217 231.205 80.3076C231.213 80.2961 231.227 80.2944 231.233 80.2821L232.528 78.3889C232.545 78.3696 232.545 78.3458 232.555 78.33C232.566 78.3159 232.582 78.3097 232.594 78.2921L233.675 76.399C233.681 76.3867 233.681 76.3735 233.687 76.3612C233.692 76.3533 233.7 76.3497 233.704 76.3418L234.677 74.4487C234.689 74.4284 234.689 74.4091 234.696 74.3888C234.702 74.3748 234.715 74.3695 234.721 74.3572L235.583 72.3532C235.605 72.3013 235.6 72.2476 235.616 72.1957C235.628 72.1702 235.648 72.1579 235.658 72.1359L236.194 70.0325C236.194 70.0325 236.194 70.0272 236.196 70.0246V70.0228C236.198 70.0114 236.194 70.0008 236.196 69.9894C236.239 69.8178 236.252 69.6454 236.227 69.4703C236.21 69.327 236.157 69.1959 236.098 69.0683C236.081 69.0287 236.079 68.9847 236.059 68.9452L230.446 58.9234C230.434 58.9093 230.425 58.9014 230.413 58.8891C230.361 58.8039 230.295 58.7362 230.229 58.6677L230.214 58.6525C230.159 58.5926 230.112 58.5275 230.049 58.4818C229.988 58.4343 229.91 58.4097 229.841 58.3762C229.746 58.3287 229.658 58.2768 229.554 58.2531C229.54 58.2469 229.532 58.239 229.515 58.2355L227.356 57.7895C227.335 57.7833 227.312 57.7921 227.292 57.7895C227.273 57.7877 227.254 57.7719 227.234 57.7701L225.183 57.5475C225.166 57.5449 225.157 57.5528 225.141 57.5493C225.13 57.5493 225.122 57.5414 225.109 57.5414L223.057 57.4297C223.033 57.4279 223.015 57.4376 222.994 57.4376C222.967 57.4376 222.941 57.4261 222.917 57.4297L220.754 57.5493C220.743 57.5493 220.733 57.5572 220.721 57.5572C220.704 57.559 220.694 57.5511 220.677 57.5555L218.626 57.778C218.605 57.7798 218.588 57.7956 218.568 57.7974C218.549 57.8 218.524 57.7921 218.504 57.7974L216.346 58.2434C216.315 58.2487 216.296 58.2689 216.268 58.2768C216.242 58.2847 216.211 58.2768 216.18 58.2892L214.24 58.9551L212.361 59.4917C212.309 59.5058 212.273 59.5454 212.22 59.563C212.169 59.585 212.11 59.5894 212.06 59.6166L210.141 60.7163L208.305 61.7227C208.299 61.7244 208.299 61.7306 208.294 61.7341C208.288 61.7368 208.281 61.7368 208.275 61.7403L206.547 62.744C206.516 62.7625 206.501 62.7924 206.476 62.81C206.445 62.8276 206.412 62.832 206.386 62.8558L206.206 63.0009L205.173 61.2415C205.135 61.1817 205.079 61.1438 205.034 61.0884C204.992 61.0365 204.972 60.9767 204.921 60.9292L198.615 54.9981L199.17 54.3806C199.188 54.3665 199.188 54.3463 199.201 54.3322C199.215 54.319 199.232 54.3128 199.244 54.2988L200.539 52.6291C200.556 52.6071 200.561 52.5754 200.578 52.5552C200.589 52.5349 200.611 52.5296 200.622 52.5112L202.997 48.7257C203.018 48.6923 203.022 48.6519 203.042 48.6149C203.053 48.5929 203.08 48.5806 203.091 48.5568L203.953 46.6637C203.964 46.6382 203.959 46.61 203.97 46.5863C203.976 46.5722 203.992 46.5643 203.997 46.5485L204.751 44.4336C204.757 44.4257 204.753 44.4134 204.757 44.4019C204.758 44.3993 204.764 44.3958 204.769 44.3896L205.414 42.3856C205.42 42.3592 205.414 42.3337 205.422 42.3135C205.429 42.2818 205.447 42.2563 205.454 42.2282L206.318 37.9976C206.326 37.9598 206.316 37.9299 206.32 37.892C206.322 37.8524 206.345 37.819 206.347 37.7785L206.455 35.552C206.455 35.5379 206.449 35.5265 206.449 35.5124C206.449 35.5001 206.455 35.4904 206.455 35.4781V33.3633C206.455 33.3509 206.449 33.3413 206.449 33.3289C206.449 33.3175 206.455 33.3069 206.455 33.2955L206.347 30.9572C206.345 30.9352 206.333 30.9176 206.33 30.8974C206.322 30.798 206.287 30.7065 206.26 30.6097C206.234 30.5218 206.216 30.432 206.178 30.3529C206.15 30.301 206.112 30.2614 206.081 30.2156C206.004 30.096 205.918 29.9869 205.811 29.8995C205.809 29.8976 205.806 29.8936 205.803 29.8916L196.736 22.7659C196.724 22.758 196.711 22.758 196.699 22.746C196.595 22.6685 196.476 22.6168 196.356 22.5731C196.307 22.5551 196.266 22.5253 196.215 22.5134C196.119 22.4876 196.023 22.4955 195.922 22.4936C195.834 22.4936 195.749 22.4856 195.66 22.5015C195.643 22.5035 195.628 22.4995 195.611 22.5015L193.559 22.9469C193.538 22.9528 193.517 22.9687 193.496 22.9786C193.474 22.9846 193.451 22.9786 193.432 22.9846L191.381 23.6506C191.364 23.6566 191.356 23.6686 191.342 23.6726C191.325 23.6785 191.31 23.6745 191.293 23.6805L189.35 24.4579C189.342 24.4598 189.332 24.4718 189.324 24.4757C189.313 24.4817 189.299 24.4778 189.288 24.4837L187.345 25.3724C187.327 25.3784 187.324 25.3923 187.306 25.4002C187.288 25.4062 187.274 25.4062 187.256 25.4142L185.421 26.4203C185.4 26.4342 185.384 26.458 185.363 26.4719C185.342 26.4858 185.311 26.4898 185.288 26.5057L183.561 27.7304C183.547 27.7424 183.539 27.7582 183.524 27.7682C183.511 27.7801 183.491 27.7821 183.478 27.794L181.859 29.1301C181.851 29.136 181.848 29.148 181.841 29.152C181.829 29.1579 181.822 29.16 181.815 29.1659L180.195 30.6133C180.168 30.6388 180.156 30.6731 180.133 30.6968C180.113 30.7188 180.077 30.7347 180.058 30.7566L178.655 32.4264C178.649 32.4325 178.648 32.4404 178.642 32.4483C178.636 32.4563 178.624 32.4607 178.62 32.4686L177.325 34.1383C177.319 34.1462 177.319 34.1585 177.311 34.1664C177.304 34.1743 177.294 34.1779 177.29 34.1858L176.103 35.8564C176.089 35.874 176.089 35.896 176.077 35.9135C176.066 35.932 176.051 35.9399 176.04 35.9575L175.899 36.1942L173.674 34.6353C173.624 34.6019 173.572 34.5957 173.522 34.572C173.472 34.5438 173.437 34.4998 173.381 34.4805L165.285 31.3469L165.513 30.8517C165.53 30.8121 165.526 30.7725 165.539 30.7329C165.559 30.6792 165.592 30.6352 165.604 30.5754L166.143 28.2373V28.2174C166.145 28.2095 166.149 28.2056 166.151 28.1976L166.582 26.0822C166.584 26.0702 166.581 26.0603 166.582 26.0444C166.584 26.0325 166.595 26.0225 166.596 26.0106L166.92 23.8952C166.922 23.8693 166.914 23.8474 166.914 23.8236C166.92 23.7958 166.933 23.7719 166.936 23.7461L167.043 21.5193C167.043 21.4934 167.032 21.4716 167.032 21.4478C167.032 21.4199 167.043 21.396 167.043 21.3741L166.827 17.1433C166.826 17.1055 166.806 17.0777 166.801 17.0398C166.795 17.0061 166.806 16.9743 166.801 16.9404L166.368 14.7156L166.367 14.7097V14.7017L165.935 12.5864C165.927 12.5485 165.904 12.5267 165.892 12.4928C165.885 12.4551 165.891 12.4253 165.875 12.3875L165.122 10.2721C165.122 10.2642 165.11 10.2582 165.11 10.2502C165.105 10.2423 165.108 10.2303 165.105 10.2224L164.35 8.32958C164.342 8.31172 164.329 8.30178 164.32 8.28384C164.312 8.26598 164.314 8.25006 164.306 8.2322L163.333 6.22811C163.327 6.21413 163.314 6.20621 163.306 6.19425C163.255 6.09686 163.184 6.0213 163.114 5.93781C163.063 5.87817 163.026 5.81254 162.967 5.76486C162.905 5.71111 162.826 5.68128 162.756 5.63958C162.668 5.58786 162.585 5.53419 162.488 5.5064C162.475 5.50041 162.463 5.48845 162.45 5.48652L151.441 2.48035C151.416 2.47243 151.389 2.48034 151.366 2.47436C151.266 2.45448 151.167 2.45448 151.065 2.45448C150.988 2.4565 150.911 2.45255 150.835 2.46838C150.745 2.48633 150.658 2.52609 150.57 2.5619C150.489 2.59568 150.41 2.6255 150.339 2.6752C150.311 2.69306 150.283 2.69508 150.261 2.71496L148.545 4.04704L146.927 5.27177C146.902 5.28963 146.89 5.31752 146.869 5.33538C146.847 5.35324 146.823 5.35728 146.805 5.3791L145.294 6.82659C145.272 6.84647 145.266 6.87224 145.248 6.89019C145.229 6.90805 145.205 6.91799 145.19 6.93787L143.782 8.60599C143.776 8.61197 143.775 8.61989 143.769 8.62781C143.764 8.63582 143.752 8.63977 143.748 8.64769L142.452 10.3177C142.435 10.3376 142.433 10.3635 142.42 10.3834C142.402 10.4033 142.383 10.4113 142.37 10.4351L141.182 12.3279C141.176 12.3358 141.176 12.3458 141.17 12.3538C141.165 12.3656 141.153 12.3677 141.15 12.3795L140.068 14.2723C140.051 14.3042 140.051 14.338 140.035 14.3698C140.021 14.4016 139.993 14.4235 139.979 14.4533L139.233 16.3202L138.373 18.3124C138.356 18.3522 138.362 18.3899 138.347 18.4297C138.336 18.4675 138.308 18.4893 138.3 18.5291L137.761 20.6446C137.759 20.6564 137.761 20.6664 137.759 20.6823C137.757 20.6943 137.747 20.7022 137.745 20.7161L137.314 22.8315C137.311 22.8494 137.316 22.8653 137.314 22.8852C137.311 22.9031 137.3 22.917 137.294 22.9369L137.283 23.0244L135.328 22.5194C135.251 22.4995 135.174 22.5134 135.097 22.5075C135.041 22.5015 134.995 22.4757 134.933 22.4757L126.264 22.8614L126.226 22.0482C126.226 22.0343 126.218 22.0223 126.218 22.0084C126.216 21.9945 126.221 21.9825 126.221 21.9686L126.004 19.8533C126.004 19.8393 125.996 19.8314 125.993 19.8154C125.993 19.8036 125.995 19.7896 125.993 19.7777L125.669 17.6622C125.667 17.6364 125.65 17.6165 125.644 17.5966C125.638 17.5708 125.646 17.5489 125.642 17.5251L125.103 15.4096C125.097 15.3878 125.081 15.3699 125.075 15.35C125.069 15.3301 125.073 15.3042 125.064 15.2824L124.322 13.1649C124.322 13.159 124.316 13.157 124.316 13.153C124.314 13.1471 124.316 13.1451 124.314 13.1391L123.56 11.135C123.547 11.0973 123.516 11.0754 123.503 11.0416C123.485 11.0037 123.485 10.968 123.464 10.9302L121.301 7.14469C121.289 7.12279 121.264 7.11091 121.251 7.08698C121.239 7.0671 121.238 7.04133 121.224 7.02338L120.036 5.35332C120.025 5.33546 120.005 5.32746 119.993 5.3096C119.981 5.2957 119.979 5.27582 119.967 5.26192L118.562 3.59776L117.159 1.92771C117.137 1.90184 117.106 1.88996 117.083 1.86806C117.058 1.8422 117.047 1.80842 117.019 1.78458L115.402 0.337092C115.391 0.325216 115.376 0.32319 115.36 0.315272C115.277 0.247622 115.181 0.201966 115.081 0.150238C115.017 0.118392 114.956 0.0766916 114.888 0.0528513C114.805 0.0269876 114.714 0.0309517 114.626 0.0210109C114.535 0.00904677 114.443 -0.00678973 114.352 0.00315107C114.333 0.00508645 114.315 -0.00283459 114.3 0.00112414L102.963 1.67118C102.963 1.67118 102.962 1.67321 102.957 1.67321C102.779 1.69898 102.607 1.76065 102.447 1.85803C102.287 1.9555 102.156 2.08272 102.05 2.23183C102.047 2.23385 102.044 2.23385 102.044 2.23385L100.857 3.90795C100.835 3.93971 100.832 3.97155 100.812 4.00138C100.795 4.03322 100.766 4.04906 100.748 4.0809L99.7756 5.9737C99.7756 5.98557 99.7756 5.99956 99.7713 6.01144C99.7652 6.01944 99.7575 6.02534 99.7541 6.03335L98.7805 8.14872C98.7693 8.1766 98.7728 8.20643 98.7616 8.23229C98.7496 8.25815 98.7281 8.27997 98.7187 8.30583L98.0785 10.288V10.29L97.4332 12.1828C97.416 12.2305 97.4254 12.2763 97.4134 12.328C97.4022 12.3737 97.3756 12.4075 97.3696 12.4572L97.0456 14.7953C97.0456 14.8033 97.0473 14.8092 97.0456 14.8172C97.0456 14.8232 97.0396 14.8291 97.0396 14.8371L96.8239 16.8412C96.8239 16.8551 96.8257 16.8671 96.8257 16.881C96.8257 16.8949 96.8179 16.9128 96.8179 16.9267L96.7105 19.0421C96.7105 19.0561 96.7157 19.0679 96.7157 19.0818C96.7157 19.0958 96.7105 19.1077 96.7105 19.1197V21.4578C96.7105 21.4975 96.7294 21.5294 96.7311 21.5692C96.7337 21.6089 96.7234 21.6407 96.7294 21.6805L97.0439 23.7403L97.2596 25.7365C97.2656 25.7961 97.2965 25.8418 97.306 25.8995C97.3172 25.9432 97.306 25.985 97.3232 26.0307L97.3945 26.2494L94.723 26.7365C94.6611 26.7484 94.613 26.7882 94.5555 26.8021C94.4996 26.822 94.4412 26.82 94.387 26.8459L86.5685 30.5455L86.3279 29.8759C86.309 29.8162 86.2643 29.7784 86.2377 29.7227C86.2102 29.6691 86.2042 29.6114 86.1715 29.5597L85.0192 27.832L83.9572 25.9711C83.94 25.9392 83.9108 25.9234 83.8919 25.8936C83.8721 25.8657 83.8704 25.8339 83.8472 25.806L81.2565 22.4658C81.235 22.438 81.2006 22.4221 81.1757 22.3983C81.1542 22.3724 81.143 22.3386 81.1172 22.3148L79.6067 20.8673C79.6006 20.8614 79.5929 20.8594 79.5869 20.8534C79.5852 20.8515 79.5817 20.8414 79.5757 20.8395L77.8486 19.2807C77.8288 19.2609 77.8022 19.2589 77.7833 19.237C77.7618 19.2192 77.7463 19.1913 77.7248 19.1774L75.9977 17.9526C75.9728 17.9348 75.9461 17.9327 75.9212 17.9188C75.8997 17.9049 75.8843 17.8791 75.8628 17.8672L74.0145 16.8512L72.2349 15.7716C72.1963 15.7497 72.1542 15.7497 72.1198 15.7278C72.0828 15.7079 72.0562 15.6762 72.0158 15.6623L69.9647 14.8849H69.9527C69.951 14.8829 69.945 14.8789 69.9415 14.877L68.1061 14.2108C68.0924 14.2049 68.0795 14.2089 68.064 14.205C67.9557 14.1671 67.8423 14.1611 67.7306 14.1572C67.6644 14.1512 67.5974 14.1354 67.5321 14.1393C67.4488 14.1453 67.3714 14.183 67.2907 14.2029C67.191 14.2307 67.0982 14.2506 67.0054 14.3003C66.9916 14.3063 66.9787 14.3063 66.9633 14.3143L57.3574 19.9288L57.25 19.9924C57.2054 20.0183 57.1787 20.0601 57.1357 20.0918C57.0455 20.1575 56.9587 20.225 56.8857 20.3165C56.8238 20.3881 56.7852 20.4735 56.7413 20.5551C56.7078 20.6147 56.6597 20.6605 56.6365 20.7281L56.3134 21.6168C56.2954 21.6685 56.3014 21.7162 56.2919 21.7679C56.2799 21.8136 56.249 21.8514 56.2412 21.9012L56.0256 23.3486L55.7059 25.3348C55.6999 25.3745 55.7119 25.4123 55.7076 25.452C55.7059 25.4958 55.6862 25.5256 55.6862 25.5693V27.9075C55.6862 27.9194 55.6922 27.9293 55.6922 27.9452C55.6922 27.9591 55.6862 27.9711 55.6862 27.985L55.7944 30.1004C55.7944 30.1145 55.8022 30.1259 55.8022 30.1444C55.8022 30.1558 55.8004 30.1664 55.8004 30.1778L56.0161 32.2935C56.0178 32.3155 56.0333 32.3375 56.035 32.3586C56.0376 32.3788 56.0333 32.3991 56.035 32.4184L56.4672 34.6459C56.469 34.6635 56.481 34.6731 56.4844 34.6916C56.4861 34.7031 56.4844 34.7171 56.4861 34.7312L57.0266 36.8461C57.0318 36.868 57.0533 36.8786 57.0593 36.8997C57.0705 36.9437 57.067 36.9859 57.0842 37.029L57.8378 38.9222L58.5836 40.9007C58.5914 40.9262 58.6206 40.9385 58.63 40.9596C58.6489 41.008 58.6515 41.059 58.6799 41.1048L59.7617 42.9979C59.7729 43.0181 59.7926 43.0234 59.8038 43.0419C59.821 43.0674 59.8236 43.0956 59.8408 43.1193L61.0085 44.7635L61.1632 45.0116L59.4051 46.0461C59.3389 46.0892 59.2951 46.1491 59.2375 46.1992C59.1817 46.2449 59.1215 46.2661 59.0717 46.3241L53.1711 52.9783L52.6813 52.4382C52.6503 52.4038 52.6117 52.3898 52.579 52.3643C52.5464 52.3308 52.5275 52.2904 52.4888 52.2604L50.8691 51.0359L49.1539 49.7084C49.129 49.6882 49.0964 49.6864 49.0689 49.6644C49.044 49.6459 49.0302 49.6204 49.0036 49.6046L47.2764 48.6008C47.2687 48.5947 47.2549 48.5947 47.2438 48.5885C47.236 48.5824 47.2266 48.5709 47.2163 48.5665L45.2735 47.5628C45.2597 47.5548 45.2425 47.5566 45.2296 47.5504C45.2159 47.5425 45.2081 47.5285 45.191 47.5232L43.1399 46.6338C43.1184 46.6259 43.0952 46.6285 43.0746 46.6206C43.0548 46.6127 43.0411 46.5942 43.0179 46.588L40.9676 45.9221C40.935 45.9107 40.904 45.9203 40.8705 45.9107C40.8344 45.9027 40.8052 45.8763 40.7666 45.8711L38.7352 45.5403L36.734 45.1075C36.7091 45.1013 36.6841 45.1092 36.6575 45.1048C36.636 45.1031 36.6145 45.0872 36.5939 45.0855L34.5428 44.8629C34.5179 44.8603 34.4964 44.8708 34.4732 44.8708C34.4483 44.8691 34.4268 44.8524 34.3976 44.8524H32.2391C32.2125 44.8524 32.1893 44.8664 32.1635 44.8708C32.1386 44.8708 32.118 44.8585 32.0948 44.8629L30.0437 45.0855C30.0376 45.0855 30.0316 45.0916 30.0239 45.0916C29.9225 45.1048 29.8314 45.1506 29.7369 45.1831C29.6622 45.2104 29.5831 45.2227 29.5135 45.2605C29.492 45.272 29.4765 45.2984 29.4559 45.3116C29.3227 45.3978 29.2016 45.4972 29.1045 45.6221L29.0967 45.63L22.0808 54.9823C22.061 55.0087 22.0593 55.0404 22.0421 55.0624C21.9862 55.1459 21.9536 55.233 21.9166 55.3245C21.884 55.4081 21.8513 55.4873 21.8342 55.5735C21.8161 55.6588 21.8204 55.7441 21.8161 55.8295C21.8144 55.9333 21.8144 56.0283 21.8342 56.1259C21.8393 56.1576 21.8316 56.1857 21.8393 56.213L22.3695 58.2909L22.7957 60.375C22.8094 60.4383 22.8421 60.492 22.8653 60.5518C22.8782 60.5993 22.8765 60.645 22.8979 60.6908L23.746 62.5461L24.4807 64.4982C24.4885 64.5237 24.5168 64.536 24.5263 64.558C24.546 64.6055 24.5477 64.6574 24.577 64.7032L25.6579 66.5954C25.67 66.6157 25.6889 66.6218 25.7009 66.6394C25.7181 66.6649 25.7198 66.6931 25.737 66.7168L26.9056 68.361L28.0656 70.2084C28.0871 70.2463 28.1275 70.2559 28.1507 70.2876C28.1868 70.3395 28.2065 70.3949 28.2512 70.4407L29.6544 71.8887C29.6596 71.894 29.6673 71.8966 29.675 71.9019C29.6811 71.9098 29.6828 71.9204 29.6888 71.9239L31.2002 73.3719C31.2114 73.3833 31.2269 73.3851 31.2424 73.3974C31.2544 73.4097 31.2561 73.4256 31.2699 73.4352L32.997 74.8824C33.0047 74.8885 33.0142 74.8903 33.0219 74.8964C33.0296 74.9026 33.0331 74.914 33.0408 74.9184L34.768 76.2547C34.7955 76.2767 34.8298 76.2662 34.8565 76.2864C34.9029 76.3181 34.9458 76.3541 34.9957 76.384L33.4859 78.6502C33.4498 78.7039 33.4421 78.7637 33.4172 78.8209C33.3897 78.8745 33.3476 78.9124 33.3278 78.9722L30.3461 87.4263L29.596 87.1412C29.5908 87.1395 29.5848 87.1412 29.5788 87.1395C29.5711 87.1377 29.5651 87.128 29.5582 87.1254L27.6145 86.4594C27.5879 86.4515 27.5586 86.4577 27.5337 86.448C27.5088 86.4419 27.4873 86.4216 27.4624 86.4163L25.4113 85.9703C25.3976 85.9686 25.3804 85.973 25.3675 85.9703C25.3537 85.9686 25.346 85.9589 25.3305 85.9562L23.1712 85.6228C23.1351 85.6167 23.1059 85.6308 23.0698 85.629C23.0328 85.6264 23.0036 85.607 22.9675 85.607H20.8082L18.7459 85.6026C18.7339 85.6026 18.7244 85.6088 18.7133 85.6088C18.7012 85.6105 18.6918 85.6026 18.6763 85.607L16.5178 85.7178C16.4809 85.7205 16.4542 85.7398 16.4173 85.7442C16.3786 85.7495 16.34 85.7381 16.3013 85.746L12.2 86.6363C12.1536 86.6486 12.1166 86.6803 12.0728 86.6961C12.0221 86.7146 11.9723 86.7084 11.9241 86.7304L10.0002 87.6127L8.01289 88.3684C8.00516 88.3702 7.9994 88.3799 7.99166 88.3825C7.98393 88.3843 7.97431 88.3843 7.96657 88.3887L6.1315 89.1655C6.10452 89.1778 6.08717 89.1998 6.06208 89.213C5.97151 89.2587 5.89056 89.3185 5.81151 89.3863C5.74792 89.4443 5.68425 89.4901 5.6284 89.5552C5.57057 89.6212 5.53199 89.6986 5.48765 89.7742C5.43755 89.8595 5.39322 89.9449 5.36237 90.0381C5.35077 90.0707 5.32576 90.0918 5.31992 90.1244L2.40543 101.701C2.39967 101.727 2.40543 101.749 2.40354 101.769C2.38585 101.86 2.386 101.951 2.38615 102.045L2.38618 102.071C2.38618 102.156 2.38034 102.242 2.39769 102.322C2.41118 102.407 2.44977 102.486 2.48062 102.57C2.51722 102.661 2.54618 102.753 2.60014 102.838C2.61363 102.858 2.61363 102.884 2.63099 102.902L3.81834 104.572C3.8241 104.58 3.83183 104.58 3.83767 104.59C3.84532 104.602 3.84531 104.612 3.85494 104.622L5.1503 106.292C5.1619 106.306 5.17728 106.312 5.19274 106.326C5.20623 106.339 5.20624 106.36 5.21973 106.374L6.73102 108.043C6.74253 108.057 6.758 108.062 6.76951 108.071C6.783 108.086 6.78687 108.103 6.80036 108.117L8.31166 109.564C8.3309 109.585 8.35789 109.591 8.381 109.61C8.40223 109.63 8.41185 109.656 8.43694 109.67L10.0561 110.894C10.0621 110.896 10.0672 110.896 10.0733 110.901C10.081 110.907 10.0853 110.915 10.093 110.92L11.8202 112.145C11.8253 112.151 11.8373 112.147 11.8408 112.153C11.8528 112.159 11.8588 112.173 11.8683 112.179L13.5954 113.294C13.6221 113.315 13.659 113.306 13.6857 113.322C13.7355 113.35 13.7707 113.389 13.8266 113.414L15.7333 114.181L17.7835 115.07C17.8145 115.084 17.8471 115.078 17.8806 115.09C17.9107 115.101 17.9365 115.128 17.9648 115.136L20.0159 115.692C20.028 115.694 20.0357 115.694 20.0469 115.694C20.0546 115.696 20.0606 115.702 20.0683 115.706L22.0112 116.152C22.0421 116.157 22.073 116.157 22.1057 116.163C22.1169 116.163 22.1272 116.175 22.1383 116.175L22.3179 116.197L21.8316 118.201C21.8144 118.267 21.8299 118.334 21.8238 118.4C21.8187 118.468 21.7912 118.533 21.7929 118.605L22.1633 127.584H21.444C21.4363 127.584 21.4269 127.59 21.4174 127.59C21.4037 127.592 21.3908 127.584 21.3753 127.588L19.2159 127.699C19.1833 127.701 19.1541 127.719 19.1197 127.725C19.0776 127.73 19.0389 127.719 19.0003 127.727L16.9492 128.172C16.9243 128.178 16.9071 128.194 16.8839 128.204C16.8624 128.21 16.8392 128.204 16.8203 128.21L14.8113 128.858L12.7834 129.409C12.7473 129.417 12.7215 129.447 12.6872 129.461C12.6502 129.474 12.6124 129.469 12.5737 129.486L10.6309 130.375C10.6172 130.381 10.6094 130.395 10.5923 130.403C10.5785 130.409 10.5596 130.409 10.5459 130.417L8.71062 131.423C8.68939 131.435 8.67393 131.461 8.65279 131.475C8.6277 131.489 8.59685 131.492 8.57563 131.508L6.84848 132.733C6.84075 132.739 6.83697 132.747 6.82924 132.753C6.8215 132.761 6.80999 132.761 6.80225 132.767L5.07511 134.103C5.06162 134.115 5.05578 134.13 5.04229 134.143C5.0288 134.155 5.01152 134.157 4.99803 134.168L3.37881 135.616C3.37306 135.622 3.37109 135.629 3.36146 135.636C3.3557 135.642 3.34797 135.644 3.34221 135.65L1.83092 137.097C1.81167 137.117 1.80394 137.143 1.78658 137.161C1.76733 137.18 1.74422 137.188 1.72875 137.209L0.325468 138.878C0.317735 138.891 0.313869 138.905 0.306135 138.916C0.245214 138.994 0.20423 139.082 0.161587 139.174L0.151983 139.195C0.119159 139.263 0.071036 139.332 0.0498119 139.405C0.0285878 139.483 0.0305685 139.564 0.022835 139.648C0.0112348 139.752 -0.00801288 139.853 0.00358733 139.956C0.00358733 139.974 0.00160749 139.984 0.00160749 140.002L1.5129 151.695C1.51479 151.733 1.53791 151.758 1.54375 151.794C1.56026 151.87 1.58563 151.941 1.61148 152.013L1.61507 152.023C1.65167 152.116 1.69017 152.202 1.74224 152.285C1.78469 152.345 1.82705 152.402 1.87715 152.458C1.94847 152.538 2.02563 152.607 2.11233 152.667C2.14515 152.692 2.16827 152.727 2.20298 152.746L3.93013 153.751L5.74208 154.85C5.7536 154.858 5.76708 154.852 5.77868 154.862C5.79604 154.87 5.80567 154.89 5.82491 154.9L7.76799 155.903C7.79497 155.918 7.82582 155.911 7.85082 155.924C7.88752 155.941 7.91253 155.971 7.94724 155.983L9.89023 156.649C9.90742 156.656 9.92718 156.651 9.94265 156.657C9.95382 156.659 9.96155 156.671 9.9753 156.675L12.0264 157.232C12.0376 157.234 12.0453 157.234 12.0573 157.234C12.0642 157.236 12.0702 157.241 12.0779 157.246L14.0208 157.675C14.0654 157.683 14.1058 157.683 14.1479 157.689C14.16 157.691 14.1694 157.697 14.1814 157.702L18.4993 158.147C18.5448 158.153 18.5895 158.155 18.6377 158.155H20.6887C20.7833 158.155 20.8761 158.147 20.974 158.123L22.9615 157.694L24.937 157.478C24.9679 157.476 24.9929 157.457 25.0221 157.451C25.0839 157.443 25.1432 157.443 25.2051 157.423L25.413 157.358L25.9183 160.113C25.9295 160.179 25.9647 160.233 25.9836 160.296C25.9973 160.343 25.9956 160.389 26.0145 160.435L29.5908 168.591L28.7831 169.052L26.9477 170.058C26.94 170.063 26.9339 170.071 26.9262 170.077C26.915 170.084 26.9056 170.084 26.8953 170.09L25.0607 171.205C25.0238 171.226 25.0023 171.264 24.9696 171.288C24.9336 171.314 24.8889 171.326 24.8545 171.354L21.6159 174.249C21.6021 174.26 21.5961 174.281 21.585 174.292C21.5738 174.304 21.5583 174.311 21.5429 174.32L20.1397 175.767C20.1276 175.782 20.1216 175.8 20.1122 175.813C20.101 175.825 20.0855 175.832 20.0735 175.846L18.6703 177.515C18.6488 177.541 18.6437 177.575 18.6239 177.601C18.605 177.627 18.5741 177.645 18.5552 177.672L17.3676 179.565C17.3651 179.567 17.3651 179.578 17.3616 179.585C17.3556 179.597 17.3444 179.599 17.3401 179.611L16.2592 181.504C16.2575 181.509 16.2575 181.516 16.2532 181.517C16.2532 181.523 16.2471 181.526 16.2454 181.53L15.2762 183.311C15.2564 183.344 15.259 183.382 15.2435 183.417C15.2255 183.454 15.1971 183.476 15.1851 183.516L14.4281 185.631C14.4255 185.643 14.4281 185.657 14.4255 185.669C14.4238 185.681 14.4143 185.687 14.4126 185.697L13.7664 187.813C13.7647 187.824 13.7664 187.835 13.7647 187.846C13.7381 187.952 13.7381 188.057 13.7321 188.166C13.7303 188.245 13.7106 188.325 13.7183 188.403C13.7166 188.474 13.7492 188.544 13.7724 188.617L13.7788 188.643C13.8032 188.74 13.8281 188.84 13.8747 188.925C13.8807 188.938 13.8807 188.952 13.8859 188.963L19.6078 198.986C19.6095 198.992 19.6189 198.994 19.6207 199C19.7349 199.188 19.8888 199.341 20.0778 199.459C20.1305 199.494 20.1818 199.513 20.2349 199.533L20.2497 199.538C20.3321 199.578 20.4069 199.63 20.498 199.652L22.4408 200.097C22.4855 200.105 22.5259 200.105 22.568 200.111C22.58 200.113 22.5895 200.119 22.6006 200.123L24.76 200.346C24.8064 200.352 24.8502 200.354 24.8983 200.354H29.0005C29.0469 200.354 29.0916 200.352 29.1397 200.346L31.2982 200.123C31.3102 200.121 31.318 200.115 31.3291 200.115C31.3678 200.109 31.4065 200.109 31.4451 200.101L33.4954 199.656C33.5151 199.654 33.5289 199.636 33.5521 199.63C33.577 199.624 33.6036 199.628 33.6286 199.618L35.6796 198.951C35.6934 198.946 35.7046 198.934 35.7183 198.93C35.7355 198.924 35.7492 198.928 35.7647 198.922L37.7075 198.145C37.7196 198.143 37.7247 198.131 37.7342 198.127C37.7462 198.121 37.7557 198.125 37.7677 198.119L39.7105 197.23C39.7277 197.222 39.7354 197.208 39.7526 197.198C39.7664 197.19 39.7836 197.196 39.7973 197.187L41.6318 196.18C41.6628 196.163 41.6782 196.135 41.7075 196.117C41.7264 196.105 41.7496 196.111 41.7693 196.097L43.4965 194.872C43.5137 194.86 43.5214 194.838 43.5403 194.827C43.5601 194.809 43.5833 194.806 43.5987 194.789L43.6701 194.725L44.7742 196.564C44.7991 196.604 44.8395 196.622 44.8687 196.655C44.9151 196.72 44.9435 196.793 45.0019 196.848L51.266 202.924L50.7324 203.563C50.7264 203.569 50.7264 203.577 50.7213 203.585C50.7152 203.593 50.7032 203.596 50.6998 203.604L49.404 205.275C49.3988 205.283 49.3988 205.294 49.3911 205.302C49.3834 205.31 49.3731 205.314 49.3696 205.322L48.1821 206.992C48.1684 207.012 48.1649 207.038 48.1512 207.056C48.1383 207.078 48.1151 207.09 48.1048 207.114L47.0238 209.007C47.0118 209.029 47.0118 209.052 47.0023 209.072C46.9946 209.09 46.9774 209.1 46.9697 209.12L45.9961 211.231C45.9884 211.251 45.9901 211.275 45.9824 211.291C45.9746 211.312 45.9574 211.329 45.9497 211.35L45.1961 213.466C45.1944 213.474 45.1961 213.484 45.1944 213.491C45.1944 213.498 45.1884 213.504 45.1867 213.51L44.5405 215.514C44.5353 215.532 44.5405 215.546 44.5353 215.561C44.5336 215.576 44.5182 215.588 44.5156 215.605L43.9759 217.721C43.9699 217.747 43.9759 217.769 43.9742 217.792C43.9682 217.814 43.9553 217.836 43.9493 217.857L43.6254 219.973C43.6237 220 43.6314 220.025 43.6271 220.047C43.6254 220.074 43.6099 220.101 43.6082 220.126L43.4999 222.465C43.4999 222.477 43.5059 222.487 43.5059 222.498C43.5059 222.51 43.4999 222.52 43.4999 222.532V224.536C43.4999 224.549 43.5059 224.558 43.5059 224.574C43.5059 224.588 43.4999 224.6 43.4999 224.614L43.6082 226.729C43.6082 226.747 43.6194 226.761 43.6194 226.777C43.6254 226.868 43.658 226.95 43.6829 227.039C43.7079 227.127 43.7259 227.219 43.7637 227.302C43.7972 227.37 43.8531 227.427 43.8969 227.49C43.9588 227.574 44.0163 227.659 44.0937 227.727C44.1109 227.741 44.1186 227.765 44.1358 227.779L53.2037 235.127C53.2114 235.136 53.2226 235.13 53.2303 235.14C53.4598 235.316 53.7416 235.422 54.0346 235.428C54.0398 235.428 54.0475 235.434 54.0535 235.434C54.1927 235.434 54.3328 235.412 54.4677 235.368L56.4501 234.722L58.3482 234.289C58.3791 234.283 58.4006 234.261 58.4315 234.249C58.4625 234.241 58.4951 234.243 58.5278 234.231L60.5789 233.454C60.5918 233.448 60.5995 233.436 60.615 233.432C60.6287 233.424 60.6476 233.426 60.6614 233.42L62.6042 232.531C62.6222 232.523 62.63 232.509 62.6471 232.499C62.66 232.492 62.6781 232.497 62.691 232.487L64.5264 231.482C64.5573 231.463 64.5762 231.436 64.6037 231.417C64.6226 231.406 64.6458 231.411 64.6656 231.398L66.3927 230.174C66.4116 230.159 66.4194 230.139 66.4383 230.125C66.4503 230.117 66.464 230.119 66.4752 230.111L68.0941 228.776C68.1001 228.769 68.1061 228.757 68.1121 228.754C68.1173 228.748 68.1293 228.748 68.1371 228.74L69.7559 227.292C69.7826 227.266 69.798 227.233 69.8212 227.204C69.8427 227.182 69.8736 227.173 69.8925 227.147L71.2966 225.477C71.3018 225.469 71.3018 225.459 71.3095 225.451C71.3155 225.445 71.3267 225.443 71.331 225.434L72.6259 223.763C72.644 223.741 72.6474 223.709 72.6646 223.69C72.6766 223.67 72.6972 223.664 72.7093 223.646L73.8968 221.753C73.8985 221.747 73.8985 221.739 73.9019 221.734L73.9097 221.726L74.0068 221.562L76.3655 223.26C76.3964 223.282 76.4316 223.274 76.4617 223.292C76.533 223.34 76.5949 223.4 76.68 223.431L84.6858 226.467L84.4194 227.08C84.4023 227.119 84.4083 227.157 84.3945 227.197C84.3825 227.234 84.3559 227.26 84.3481 227.296L83.8085 229.412C83.8068 229.429 83.8085 229.443 83.8068 229.459C83.8042 229.477 83.7887 229.491 83.787 229.507L83.3557 231.845V231.863C83.3557 231.869 83.3531 231.875 83.3497 231.881L83.0257 233.885C83.024 233.911 83.0317 233.937 83.0274 233.959C83.0257 233.986 83.0085 234.013 83.0085 234.042L82.9003 236.157C82.9003 236.171 82.9063 236.184 82.9063 236.197C82.9063 236.211 82.9003 236.223 82.9003 236.235V238.573C82.9003 238.601 82.914 238.625 82.914 238.647C82.914 238.669 82.9063 238.699 82.908 238.72L83.1245 240.836C83.1262 240.864 83.1434 240.888 83.1451 240.913C83.1469 240.939 83.1434 240.967 83.1451 240.993L83.5774 242.997C83.5774 243.002 83.5788 243.005 83.5818 243.01L83.5825 243.011V243.019L84.123 245.357C84.123 245.363 84.1282 245.369 84.1307 245.375V245.389L84.6704 247.504C84.6755 247.532 84.703 247.544 84.7142 247.57C84.7322 247.63 84.7322 247.689 84.7571 247.747L85.6181 249.64C85.6242 249.653 85.6396 249.659 85.6456 249.673C85.6534 249.694 85.6534 249.713 85.6645 249.733L86.6347 251.515C86.6398 251.526 86.6518 251.529 86.6553 251.54C86.7593 251.723 86.9122 251.868 87.0892 251.991C87.1468 252.031 87.2052 252.056 87.2662 252.085C87.3298 252.117 87.3822 252.163 87.4536 252.184L98.356 255.413C98.4832 255.453 98.613 255.471 98.7401 255.471C99.0409 255.471 99.3279 255.368 99.5633 255.187H99.565L101.278 253.861L102.973 252.657C103.019 252.624 103.043 252.574 103.083 252.539C103.122 252.507 103.165 252.49 103.199 252.455L104.694 250.805L106.082 249.373C106.096 249.359 106.1 249.339 106.113 249.325C106.125 249.314 106.14 249.312 106.151 249.298L107.555 247.627C107.592 247.584 107.601 247.536 107.63 247.49C107.649 247.463 107.686 247.45 107.702 247.419L108.782 245.526C108.788 245.514 108.788 245.5 108.795 245.489C108.796 245.481 108.808 245.476 108.812 245.468L110.759 241.683C110.784 241.631 110.784 241.579 110.803 241.525C110.81 241.5 110.84 241.488 110.847 241.466L111.493 239.462V239.444C111.493 239.444 111.495 239.442 111.499 239.438L112.145 237.323C112.15 237.301 112.145 237.279 112.15 237.263C112.156 237.235 112.171 237.216 112.177 237.189L112.609 235.074C112.611 235.056 112.607 235.04 112.609 235.023C112.611 235.002 112.623 234.988 112.627 234.969L112.638 234.881L114.593 235.386C114.703 235.414 114.815 235.43 114.922 235.43H114.925H114.986L123.583 235.048V235.674C123.583 235.712 123.601 235.74 123.602 235.778C123.604 235.816 123.59 235.845 123.596 235.886L123.92 238.112V238.122L124.246 240.237C124.248 240.265 124.266 240.285 124.267 240.309C124.273 240.331 124.267 240.354 124.273 240.375L124.813 242.49C124.815 242.502 124.826 242.508 124.832 242.518C124.838 242.54 124.832 242.562 124.838 242.578L125.483 244.582C125.486 244.596 125.501 244.599 125.505 244.613C125.513 244.64 125.507 244.661 125.519 244.685L126.38 246.8C126.386 246.819 126.405 246.822 126.411 246.84C126.423 246.866 126.418 246.892 126.432 246.914L127.406 248.807C127.407 248.815 127.419 248.818 127.423 248.826C127.429 248.838 127.429 248.853 127.435 248.864L128.512 250.757C128.529 250.783 128.556 250.791 128.57 250.817C128.591 250.854 128.596 250.89 128.626 250.924L129.922 252.594C129.927 252.602 129.939 252.606 129.942 252.612C129.948 252.62 129.95 252.63 129.956 252.638L131.359 254.308C131.365 254.314 131.373 254.316 131.379 254.322C131.384 254.33 131.386 254.339 131.396 254.347L132.907 256.018C132.934 256.05 132.973 256.061 133.004 256.089C133.04 256.121 133.06 256.163 133.098 256.195L134.717 257.419C134.739 257.437 134.767 257.427 134.787 257.445C135.016 257.588 135.266 257.692 135.546 257.692C135.602 257.692 135.66 257.689 135.717 257.68L146.942 256.233C147.077 256.214 147.19 256.159 147.31 256.103C147.354 256.086 147.395 256.081 147.437 256.057C147.623 255.952 147.775 255.801 147.894 255.628C147.906 255.614 147.921 255.608 147.933 255.59L149.12 253.697C149.133 253.675 149.133 253.65 149.145 253.629C149.156 253.616 149.176 253.61 149.182 253.592L150.155 251.699C150.161 251.693 150.161 251.685 150.161 251.677C150.167 251.676 150.169 251.671 150.173 251.669L151.034 249.888C151.052 249.856 151.048 249.822 151.061 249.79C151.067 249.771 151.088 249.762 151.094 249.743L151.848 247.627C151.86 247.595 151.854 247.567 151.865 247.536C151.871 247.518 151.886 247.514 151.89 247.496L152.43 245.38C152.432 245.369 152.43 245.359 152.432 245.347C152.434 245.335 152.443 245.325 152.446 245.309L152.877 243.193C152.879 243.182 152.875 243.172 152.877 243.156C152.879 243.144 152.888 243.134 152.891 243.122L153.215 241.006C153.22 240.967 153.207 240.935 153.209 240.896C153.21 240.856 153.23 240.823 153.23 240.784V236.441C153.23 236.414 153.216 236.39 153.212 236.368C153.212 236.342 153.224 236.317 153.22 236.295L153.004 234.179C153.002 234.152 152.985 234.131 152.979 234.108C152.978 234.076 152.985 234.048 152.979 234.022L152.547 232.018C152.547 232.016 152.545 232.012 152.542 232.01V232.002L152.453 231.608L155.187 231.175C155.262 231.163 155.322 231.117 155.39 231.097C155.446 231.08 155.499 231.086 155.555 231.059L163.398 227.348L163.621 227.944C163.629 227.97 163.658 227.982 163.668 228.004C163.689 228.052 163.693 228.104 163.719 228.149L164.799 230.042C164.805 230.049 164.817 230.054 164.821 230.062C164.827 230.07 164.827 230.082 164.832 230.093L166.02 231.987C166.026 231.998 166.039 232 166.047 232.012C166.054 232.026 166.058 232.044 166.066 232.058L167.254 233.728C167.265 233.742 167.284 233.748 167.296 233.765C167.309 233.784 167.313 233.803 167.327 233.819L168.73 235.49C168.747 235.509 168.773 235.515 168.787 235.534C168.807 235.555 168.815 235.585 168.838 235.6L170.35 237.049C170.361 237.06 170.376 237.063 170.392 237.074C170.403 237.086 170.405 237.102 170.418 237.112L172.145 238.559C172.148 238.559 172.148 238.559 172.148 238.562L172.153 238.567L173.773 239.903C173.798 239.923 173.829 239.916 173.854 239.931C173.903 239.969 173.934 240.017 173.989 240.048L175.824 241.055C175.829 241.057 175.835 241.057 175.841 241.057C175.846 241.063 175.849 241.064 175.854 241.069L177.798 242.073C177.805 242.079 177.817 242.074 177.829 242.079C177.84 242.084 177.846 242.096 177.855 242.101L179.798 242.989C179.826 243.001 179.854 242.995 179.875 243.007C179.897 243.019 179.918 243.039 179.941 243.046L181.992 243.712C182.131 243.758 182.271 243.778 182.406 243.778C182.643 243.778 182.882 243.719 183.102 243.586L192.925 237.685C192.956 237.667 192.972 237.633 193 237.617C193.089 237.553 193.168 237.48 193.237 237.398C193.288 237.344 193.328 237.298 193.367 237.239C193.423 237.156 193.457 237.062 193.494 236.968C193.525 236.897 193.552 236.826 193.565 236.752C193.571 236.724 193.586 236.705 193.592 236.681L193.916 234.565C193.916 234.551 193.91 234.54 193.914 234.525C193.916 234.511 193.925 234.497 193.928 234.481L194.144 232.255C194.144 232.243 194.138 232.235 194.138 232.223C194.139 232.209 194.145 232.201 194.149 232.185L194.257 230.07C194.257 230.044 194.246 230.018 194.246 229.996C194.246 229.974 194.257 229.945 194.257 229.923L194.149 227.807C194.147 227.795 194.138 227.785 194.138 227.774C194.138 227.761 194.144 227.752 194.144 227.739L193.928 225.513C193.925 225.499 193.916 225.485 193.914 225.469C193.913 225.455 193.916 225.443 193.916 225.429L193.592 223.313C193.586 223.276 193.561 223.25 193.553 223.214C193.546 223.176 193.553 223.147 193.542 223.109L192.896 220.994C192.894 220.981 192.885 220.976 192.879 220.966C192.877 220.954 192.879 220.94 192.873 220.928L192.119 218.813C192.114 218.793 192.099 218.779 192.088 218.759C192.081 218.739 192.083 218.715 192.075 218.699L191.214 216.806C191.202 216.789 191.187 216.779 191.177 216.76C191.169 216.743 191.171 216.727 191.164 216.713L190.19 214.932C190.184 214.917 190.169 214.911 190.163 214.894C190.155 214.882 190.155 214.866 190.146 214.854L188.958 212.961C188.941 212.939 188.919 212.923 188.902 212.902C188.885 212.88 188.883 212.854 188.863 212.834L188.851 212.816L190.624 211.574C190.674 211.539 190.699 211.488 190.744 211.448C190.781 211.414 190.824 211.4 190.863 211.363L196.754 204.802L197.361 205.343L198.942 206.867C198.969 206.893 199.003 206.902 199.032 206.927C199.06 206.949 199.074 206.981 199.102 207.001L200.829 208.225C200.848 208.239 200.873 208.233 200.886 208.245C200.917 208.265 200.937 208.293 200.962 208.309L202.797 209.315L204.717 210.414C204.738 210.427 204.763 210.422 204.786 210.434C204.813 210.448 204.831 210.474 204.857 210.485L206.693 211.263C206.711 211.271 206.735 211.269 206.75 211.275C206.772 211.283 206.783 211.301 206.806 211.307L208.857 211.973C208.902 211.987 208.946 211.984 208.992 211.995C209.019 212.001 209.043 212.017 209.068 212.022L211.163 212.345L213.075 212.784C213.119 212.792 213.158 212.792 213.202 212.798C213.215 212.8 213.223 212.806 213.239 212.81L215.398 213.032C215.444 213.038 215.488 213.041 215.536 213.041H217.696C217.742 213.041 217.786 213.038 217.834 213.032L219.993 212.81C220.107 212.798 220.206 212.751 220.305 212.71C220.367 212.688 220.431 212.685 220.485 212.653C220.662 212.555 220.816 212.424 220.938 212.263C220.944 212.255 220.955 212.255 220.959 212.246L227.759 202.893C227.759 202.893 227.759 202.886 227.761 202.885C227.856 202.754 227.919 202.602 227.964 202.449C228.021 202.244 228.046 202.034 228.015 201.826V201.818L227.696 199.702C227.69 199.664 227.665 199.639 227.657 199.603C227.649 199.568 227.657 199.535 227.646 199.497L227 197.381C226.994 197.364 226.983 197.356 226.978 197.342C226.973 197.324 226.977 197.308 226.971 197.29L226.217 195.286C226.212 195.268 226.198 195.26 226.192 195.246C226.186 195.229 226.186 195.213 226.178 195.194L225.317 193.302C225.311 193.29 225.3 193.283 225.296 193.274C225.29 193.262 225.29 193.252 225.285 193.24L224.311 191.347C224.303 191.328 224.284 191.316 224.272 191.295C224.26 191.278 224.26 191.256 224.251 191.238L223.063 189.345C223.051 189.323 223.031 189.313 223.014 189.293C223 189.272 222.996 189.246 222.981 189.228L221.685 187.558C221.668 187.536 221.641 187.526 221.628 187.504C221.609 187.484 221.603 187.459 221.583 187.44L220.195 186.009L218.699 184.359C218.679 184.333 218.643 184.321 218.623 184.299C218.595 184.273 218.58 184.239 218.557 184.215L216.938 182.88C216.924 182.868 216.905 182.866 216.891 182.854C216.878 182.846 216.872 182.828 216.855 182.816L215.128 181.591C215.101 181.572 215.07 181.569 215.039 181.552C215.009 181.534 214.993 181.506 214.964 181.492L214.831 181.427L216.371 178.978C216.409 178.919 216.415 178.85 216.443 178.79C216.456 178.758 216.488 178.744 216.5 178.716L219.573 170.456L220.344 170.75C220.356 170.756 220.369 170.752 220.381 170.756C220.392 170.762 220.398 170.77 220.407 170.774L222.459 171.44C222.48 171.445 222.503 171.445 222.522 171.452C222.541 171.458 222.555 171.47 222.575 171.474L224.517 171.919C224.583 171.933 224.651 171.937 224.714 171.941C224.725 171.941 224.735 171.949 224.747 171.949L226.877 172.056L228.997 172.275C229.043 172.281 229.088 172.283 229.136 172.283H231.294C231.345 172.283 231.397 172.281 231.447 172.275L233.39 172.052C233.395 172.052 233.401 172.046 233.407 172.046C233.421 172.044 233.432 172.046 233.446 172.044L235.605 171.71C235.632 171.704 235.655 171.688 235.68 171.682C235.727 171.671 235.77 171.674 235.815 171.66L237.843 170.998L239.761 170.451C239.797 170.443 239.818 170.413 239.851 170.404C239.884 170.392 239.917 170.396 239.952 170.382L241.895 169.493C241.907 169.487 241.912 169.476 241.922 169.471C241.933 169.47 241.943 169.471 241.952 169.465L243.896 168.461C243.953 168.433 243.986 168.384 244.04 168.348C244.085 168.316 244.121 168.285 244.166 168.248C244.37 168.066 244.528 167.839 244.597 167.579C244.599 167.571 244.614 167.565 244.617 167.553L247.531 156.198C247.539 156.172 247.529 156.151 247.533 156.124C247.554 156.027 247.552 155.932 247.552 155.828C247.552 155.742 247.558 155.655 247.541 155.57C247.527 155.486 247.488 155.406 247.46 155.327C247.423 155.234 247.394 155.144 247.338 155.059C247.325 155.037 247.321 155.011 247.307 154.991L246.12 153.321C246.118 153.319 246.114 153.319 246.113 153.314V153.311L244.817 151.529C244.8 151.507 244.775 151.498 244.759 151.476C244.742 151.458 244.738 151.433 244.721 151.416L243.317 149.858C243.304 149.844 243.287 149.84 243.274 149.825C243.263 149.812 243.257 149.794 243.242 149.78L241.73 148.333C241.719 148.321 241.704 148.319 241.693 148.307C241.679 148.295 241.675 148.281 241.662 148.269L239.934 146.821C239.902 146.794 239.863 146.788 239.831 146.762C239.797 146.74 239.775 146.702 239.741 146.685L238.014 145.68L236.204 144.581C236.187 144.573 236.173 144.573 236.16 144.567C236.142 144.555 236.135 144.541 236.118 144.533L234.175 143.529C234.144 143.511 234.113 143.515 234.08 143.501C234.048 143.49 234.024 143.462 233.995 143.449L232.052 142.783C232.035 142.777 232.02 142.783 232.002 142.777C231.99 142.772 231.981 142.76 231.964 142.758L229.913 142.201C229.907 142.199 229.896 142.201 229.888 142.199C229.88 142.199 229.868 142.191 229.86 142.187L227.918 141.742C227.893 141.736 227.871 141.744 227.852 141.742C227.831 141.736 227.814 141.722 227.794 141.72L227.547 141.688L228.004 139.411C228.015 139.352 227.998 139.298 228.004 139.241C228.01 139.183 228.031 139.135 228.031 139.075L227.752 130.417H228.485C228.53 130.417 228.575 130.415 228.623 130.409L230.782 130.186C230.794 130.184 230.801 130.178 230.812 130.178C230.855 130.173 230.89 130.173 230.933 130.165L232.983 129.719C233.004 129.713 233.022 129.699 233.041 129.693C233.072 129.685 233.099 129.687 233.132 129.676L235.046 129.017L237.039 128.478C237.077 128.466 237.105 128.439 237.141 128.425C237.18 128.412 237.212 128.418 237.249 128.403L239.192 127.514C239.203 127.508 239.209 127.496 239.219 127.492C239.231 127.49 239.24 127.492 239.25 127.486L241.193 126.482C241.237 126.46 241.262 126.422 241.302 126.394C241.324 126.381 241.353 126.389 241.369 126.373L243.19 125.046L244.917 123.822C244.944 123.802 244.961 123.77 244.986 123.751C245.014 123.724 245.045 123.716 245.071 123.691L248.094 120.796C248.115 120.776 248.125 120.748 248.144 120.728C248.161 120.71 248.186 120.706 248.202 120.685L249.605 119.014C249.613 119.003 249.617 118.989 249.625 118.976C249.685 118.899 249.726 118.812 249.768 118.72L249.778 118.698C249.815 118.626 249.856 118.561 249.879 118.487C249.904 118.41 249.9 118.328 249.91 118.245C249.925 118.156 249.94 118.054 249.93 117.951ZM241.628 122.706L243.274 121.542L244.719 120.207L246.179 118.811L247.123 117.686L245.773 107.26L244.581 106.413L242.9 105.393L241.114 104.678L239.179 104.013L237.362 103.493L235.241 103.057C235.238 103.057 235.235 103.055 235.235 103.055H235.224L233.317 102.639H229.32L227.415 102.844L225.374 103.266L223.782 103.701C223.748 103.711 223.722 103.707 223.691 103.713C223.674 103.719 223.658 103.731 223.641 103.733C223.57 103.745 223.494 103.751 223.423 103.751C223.247 103.751 223.086 103.715 222.928 103.652C222.831 103.617 222.752 103.556 222.667 103.499C222.66 103.491 222.648 103.486 222.64 103.478C222.621 103.464 222.596 103.456 222.576 103.439C222.557 103.42 222.536 103.411 222.519 103.393C222.5 103.373 222.472 103.367 222.453 103.347C222.409 103.295 222.388 103.236 222.351 103.182C222.288 103.101 222.235 103.019 222.193 102.928C222.166 102.868 222.148 102.806 222.128 102.743C222.122 102.721 222.1 102.711 222.095 102.689C222.087 102.669 222.095 102.644 222.089 102.622C222.083 102.6 222.068 102.576 222.062 102.548L221.445 98.5239L217.214 89.3537C217.177 89.2789 217.177 89.1954 217.156 89.1153C217.135 89.0282 217.098 88.9429 217.092 88.8514C217.087 88.7537 217.104 88.6658 217.117 88.5752C217.125 88.4837 217.129 88.3957 217.156 88.3104C217.185 88.225 217.232 88.1476 217.275 88.0676C217.32 87.9866 217.353 87.9048 217.41 87.8336C217.466 87.7614 217.542 87.7157 217.607 87.6559C217.669 87.6022 217.719 87.5345 217.794 87.4913L219.737 86.3759C219.745 86.3697 219.757 86.3697 219.765 86.3636C219.776 86.36 219.782 86.3521 219.79 86.346L221.715 85.3519L223.277 84.4493L224.894 82.9881C224.895 82.9837 224.895 82.9819 224.895 82.9819L226.484 81.5621L227.789 80.2161L229.021 78.6256L230.244 76.8362L231.289 75.0011L232.224 73.1863L233.022 71.331L233.39 69.8997L228.373 60.9406L226.887 60.6362L224.936 60.426L222.993 60.3204L220.954 60.426L219.003 60.6362L216.99 61.0523L215.123 61.6963C215.105 61.7025 215.092 61.6981 215.078 61.7042C215.067 61.7077 215.061 61.7139 215.053 61.7157L213.274 62.2268L211.466 63.2604C211.46 63.2648 211.455 63.2604 211.449 63.2666C211.444 63.2666 211.443 63.2727 211.443 63.2727L209.606 64.2791L209.604 64.2809L208.002 65.2072L206.675 66.2611C206.658 66.2726 206.639 66.2673 206.626 66.2787C206.596 66.299 206.581 66.3306 206.551 66.35C206.323 66.4899 206.078 66.555 205.832 66.555C205.612 66.555 205.396 66.4916 205.199 66.3861C205.136 66.3482 205.086 66.2867 205.027 66.2409C204.928 66.1653 204.818 66.1019 204.737 65.9964C204.717 65.9726 204.715 65.9409 204.698 65.9128C204.684 65.8952 204.661 65.8873 204.648 65.867L202.915 62.9226L195.721 56.1594C195.72 56.155 195.72 56.1532 195.72 56.1532C195.714 56.1488 195.714 56.1488 195.708 56.147C195.642 56.0855 195.611 56.0036 195.562 55.9324C195.501 55.8523 195.432 55.7793 195.394 55.694C195.359 55.6219 195.359 55.5444 195.337 55.4714C195.315 55.3676 195.274 55.2682 195.272 55.1626C195.27 55.0852 195.297 55.006 195.309 54.9286C195.318 54.8266 195.318 54.7237 195.355 54.6243C195.384 54.5486 195.438 54.4809 195.48 54.4096C195.532 54.3199 195.565 54.224 195.635 54.1466C195.635 54.143 195.641 54.1413 195.641 54.1413C195.644 54.1369 195.644 54.1369 195.646 54.1351L197.113 52.5129L198.341 50.9242L199.488 49.097L200.621 47.2874L201.425 45.528L202.16 43.4765L202.767 41.5912L203.182 39.5556L203.588 37.5551L203.69 35.464V33.4319L203.615 31.7833L195.562 25.4549L194.191 25.7512L192.256 26.3835L190.402 27.127L188.491 28.0019L186.783 28.9363L185.177 30.0758L183.608 31.3698L182.084 32.736L180.785 34.2808L179.504 35.9285L178.36 37.5393L177.532 38.9213C177.451 39.0603 177.324 39.1395 177.208 39.2371C177.145 39.2908 177.101 39.3708 177.03 39.4139C176.823 39.5336 176.594 39.5969 176.358 39.5969C176.126 39.5969 175.888 39.5371 175.673 39.4122L174.918 38.967C174.896 38.953 174.884 38.9292 174.862 38.9151C174.851 38.9055 174.836 38.9107 174.825 38.9028L172.262 37.1082L162.917 33.4917C162.898 33.4838 162.884 33.4653 162.867 33.4574C162.848 33.4512 162.828 33.4539 162.811 33.4459C162.742 33.4116 162.695 33.3545 162.634 33.3087C162.558 33.2524 162.479 33.2049 162.418 33.1398C162.351 33.0738 162.31 32.9946 162.259 32.9164C162.21 32.8389 162.163 32.7712 162.127 32.6885C162.092 32.5988 162.082 32.5108 162.065 32.4193C162.048 32.3322 162.027 32.2469 162.027 32.1554C162.027 32.0578 162.052 31.9663 162.071 31.873C162.084 31.7991 162.076 31.7217 162.104 31.6504C162.112 31.6302 162.129 31.6188 162.137 31.5985C162.143 31.5809 162.143 31.5589 162.148 31.5405L162.952 29.7794L163.461 27.5904L163.877 25.5386L164.182 23.5464L164.282 21.4627L164.177 19.4189L164.076 17.4009L163.669 15.2954L163.26 13.2853L162.547 11.2891L161.82 9.46793L161.151 8.08819L151.392 5.42001L150.199 6.34257C150.195 6.34257 150.195 6.34257 150.193 6.3445C150.189 6.3445 150.189 6.34846 150.188 6.35049L148.628 7.53151L147.232 8.86753L145.913 10.4342L144.659 12.0526L143.539 13.8341L142.512 15.6374L141.797 17.4327C141.792 17.4386 141.785 17.4446 141.785 17.4446C141.781 17.4526 141.781 17.4625 141.779 17.4705L140.958 19.3751L140.454 21.3356L140.042 23.3655L139.834 24.9879C139.828 25.0177 139.813 25.0395 139.807 25.0714C139.801 25.0952 139.809 25.1171 139.801 25.143C139.795 25.1648 139.769 25.1807 139.763 25.2026C139.679 25.4849 139.533 25.7235 139.321 25.9004C139.302 25.9223 139.281 25.9263 139.256 25.9442C139.026 26.1112 138.76 26.2226 138.465 26.2226C138.408 26.2226 138.346 26.2185 138.282 26.2106C138.265 26.2067 138.25 26.1947 138.232 26.1928C138.195 26.1868 138.163 26.1868 138.13 26.1788L134.868 25.3379L125.028 25.7732H124.967C124.783 25.7732 124.606 25.7335 124.446 25.6678C124.378 25.638 124.324 25.5844 124.263 25.5446C124.178 25.4909 124.085 25.4472 124.014 25.3796C123.972 25.3338 123.949 25.2762 123.91 25.2285C123.839 25.137 123.764 25.0515 123.713 24.9461C123.693 24.8945 123.693 24.8348 123.675 24.7812C123.637 24.6638 123.592 24.5466 123.586 24.4153L123.479 22.2124L123.27 20.1864L122.964 18.1803L122.46 16.21L121.726 14.1502L121.02 12.2833L119.986 10.4779L118.941 8.64285L117.821 7.07018L116.462 5.45379L115.128 3.8652L114.056 2.9049L103.922 4.3961L103.138 5.50156L102.215 7.30085L101.305 9.27915L100.68 11.2097C100.68 11.2097 100.679 11.2097 100.679 11.2117C100.677 11.2176 100.677 11.2236 100.677 11.2296L100.074 12.9891L99.773 15.1602L99.5625 17.1066L99.4585 19.1585V21.3395L99.7652 23.3397C99.767 23.3496 99.7652 23.3595 99.7652 23.3675C99.7687 23.3834 99.7764 23.3913 99.7764 23.4053L99.9749 25.2642L100.359 26.4532C100.374 26.5029 100.364 26.5486 100.376 26.5963C100.399 26.6976 100.412 26.7911 100.412 26.8906C100.412 26.978 100.409 27.0635 100.392 27.149C100.378 27.2404 100.353 27.3299 100.32 27.4174C100.289 27.5029 100.249 27.5864 100.198 27.6659C100.175 27.7076 100.166 27.7554 100.133 27.7991L99.7017 28.3559C99.6707 28.3957 99.6226 28.4115 99.5857 28.4493C99.4911 28.5467 99.3949 28.6342 99.2789 28.6998C99.2059 28.7356 99.1328 28.7614 99.052 28.7873C98.9902 28.8072 98.9343 28.8529 98.8647 28.8648L95.3658 29.5031L86.3545 33.7679C86.3391 33.7776 86.3193 33.7741 86.3021 33.7794C86.2867 33.7899 86.2755 33.8057 86.2557 33.8119C86.1002 33.8708 85.9438 33.8972 85.7857 33.899H85.7797C85.7745 33.899 85.7685 33.8928 85.7625 33.8928C85.497 33.8867 85.2461 33.8058 85.0244 33.6562C84.9488 33.6069 84.911 33.5137 84.8474 33.4477C84.7314 33.3307 84.5947 33.2313 84.5234 33.0677C84.5114 33.0483 84.5131 33.0219 84.5054 32.9999C84.5002 32.9867 84.4865 32.9806 84.4805 32.9665L83.7844 31.0162L82.6957 29.3838C82.6863 29.3679 82.6863 29.348 82.6743 29.3301C82.6648 29.3162 82.6511 29.3122 82.6433 29.2983L81.6122 27.4911L80.3809 25.9004L79.1452 24.3079L77.7111 22.9361L76.0845 21.4648L74.4897 20.3335L72.7187 19.3653C72.7084 19.3613 72.7032 19.3494 72.6912 19.3434C72.6817 19.3374 72.6723 19.3414 72.6646 19.3355L70.9357 18.2857L69.029 17.562C69.0273 17.5599 69.0212 17.5599 69.0212 17.5599L67.7779 17.1067L59.0476 22.2082L58.948 22.4826L58.7546 23.7828C58.7546 23.7848 58.7529 23.7908 58.7529 23.7908V23.7987L58.4487 25.6855V27.8566L58.5527 29.928L58.7546 31.924L59.1679 34.0477L59.6706 36.0182L60.3958 37.8313C60.3976 37.8375 60.3976 37.8392 60.3976 37.8454C60.3976 37.8516 60.4027 37.8516 60.4027 37.8568L61.1159 39.75L62.1092 41.4874L63.2538 43.0964C63.2658 43.1123 63.2658 43.1281 63.2736 43.1404C63.2813 43.1519 63.2925 43.1598 63.3002 43.1721L64.2738 44.731C64.2815 44.7424 64.2798 44.7565 64.2875 44.7679C64.2952 44.7785 64.3064 44.7846 64.3124 44.7961C64.3528 44.8735 64.3623 44.9588 64.3897 45.0389C64.4207 45.1242 64.4611 45.2095 64.4722 45.2975C64.486 45.3925 64.4722 45.484 64.4662 45.5816C64.4611 45.667 64.4662 45.7541 64.4473 45.8403C64.4258 45.9291 64.382 46.0092 64.3433 46.0884C64.3064 46.1702 64.2815 46.2476 64.2239 46.3188C64.1715 46.3927 64.0967 46.4464 64.0306 46.5097C63.973 46.5696 63.9266 46.6391 63.857 46.6866C63.8501 46.6927 63.8381 46.6892 63.8304 46.6945C63.8166 46.705 63.8115 46.7191 63.7977 46.727L60.9604 48.4011L54.2039 56.0256C54.191 56.0388 54.173 56.045 54.1601 56.0573C54.1463 56.0749 54.1403 56.0951 54.1274 56.1092C54.0458 56.184 53.9513 56.2245 53.8611 56.2816C53.8052 56.3133 53.7605 56.359 53.7029 56.381C53.5371 56.4532 53.3601 56.4928 53.1822 56.4928C53.0052 56.4928 52.8316 56.4532 52.6658 56.3854C52.6117 56.3617 52.5713 56.3212 52.5214 56.2939C52.4269 56.2403 52.3307 56.1981 52.2473 56.1207C52.2301 56.1066 52.2241 56.0872 52.2112 56.0687C52.1975 56.0573 52.1786 56.0512 52.1666 56.0371L50.7462 54.4703L49.2287 53.3214C49.2253 53.317 49.2235 53.3152 49.2235 53.3152C49.2193 53.3135 49.2175 53.3135 49.2175 53.3135L47.554 52.0273L45.9557 51.101L44.0687 50.1263L42.1122 49.2773L40.239 48.6668L38.2798 48.3466C38.2721 48.3466 38.2626 48.3387 38.2549 48.3387C38.2412 48.3352 38.224 48.3352 38.2111 48.3334L36.2236 47.9032L34.3246 47.6991H32.3027L30.915 47.8495L24.6749 56.1664L25.0427 57.6038C25.0444 57.6162 25.0427 57.6276 25.0444 57.6417C25.047 57.654 25.0564 57.6619 25.0582 57.676L25.4551 59.6263L26.2517 61.3699C26.2577 61.3875 26.2577 61.4033 26.2629 61.4209C26.2689 61.435 26.2826 61.4429 26.2878 61.4614L27.001 63.3537L27.9943 65.092L29.1389 66.7001C29.1483 66.716 29.1509 66.73 29.156 66.7441C29.1681 66.7538 29.1792 66.7599 29.187 66.7714L30.2954 68.5396L31.5758 69.8609L33.0408 71.2615L34.6846 72.6364L36.2734 73.8654L37.4128 74.3563C37.5374 74.4082 37.6362 74.4979 37.7359 74.5815C37.7591 74.5973 37.7849 74.6088 37.8055 74.629C37.8888 74.7082 37.9481 74.7997 38.01 74.8973C38.0427 74.9492 38.0908 74.9774 38.1183 75.0363L38.2257 75.2598C38.2566 75.3152 38.2566 75.3785 38.2764 75.4384C38.303 75.536 38.3357 75.6231 38.3477 75.7207C38.3589 75.8184 38.3529 75.9055 38.3451 75.997C38.34 76.0867 38.334 76.1738 38.3125 76.2591C38.2841 76.3568 38.2429 76.4465 38.199 76.5336C38.1716 76.589 38.1638 76.6532 38.1277 76.7069L35.8506 80.1202L32.4505 89.7434V89.7452V89.747C32.3724 89.9623 32.2218 90.1076 32.0729 90.2514L32.0578 90.266C32.0114 90.3135 31.9916 90.3918 31.9358 90.4314C31.7089 90.5941 31.4348 90.6812 31.1538 90.6812C30.9957 90.6812 30.8394 90.6557 30.6812 90.5959L30.6795 90.5941L28.6723 89.8305H28.6705L26.7973 89.1848L24.8536 88.7652L22.8567 88.4573H18.7588L16.7696 88.5602L14.819 88.9816L12.9123 89.3977L11.1027 90.2264C11.0872 90.2326 11.07 90.2299 11.0563 90.2387C11.0408 90.2422 11.0331 90.2545 11.0193 90.2598L8.99358 91.0296L7.81972 91.531L5.24439 101.766L6.02693 102.865L7.27804 104.478L8.71216 106.06L10.1248 107.414L11.681 108.591L13.3574 109.78L14.9385 110.806L16.7601 111.536C16.7653 111.538 16.7679 111.544 16.773 111.544C16.779 111.55 16.7868 111.547 16.7928 111.55L18.7554 112.402L20.6655 112.923L22.5448 113.351L24.2006 113.565C24.2272 113.568 24.2504 113.587 24.2779 113.593C24.3046 113.598 24.3355 113.587 24.3621 113.595C24.43 113.614 24.4781 113.655 24.54 113.681C24.6225 113.718 24.7076 113.751 24.7823 113.805C24.8562 113.852 24.9172 113.915 24.9808 113.981L24.9932 113.994L25.0148 114.016C25.0645 114.067 25.112 114.118 25.1527 114.178C25.1991 114.248 25.2313 114.325 25.2647 114.405L25.2721 114.423L25.2883 114.463C25.3163 114.531 25.3448 114.6 25.3606 114.673C25.3804 114.766 25.3804 114.86 25.3804 114.957C25.3804 114.985 25.3842 115.013 25.3879 115.041C25.393 115.078 25.3981 115.115 25.3941 115.154C25.3913 115.168 25.3862 115.182 25.3811 115.195C25.3755 115.21 25.3698 115.225 25.3666 115.242C25.3649 115.268 25.3709 115.291 25.3649 115.319L24.5495 118.683L24.9757 128.945C24.9757 128.956 24.9739 128.964 24.9739 128.976C24.9739 128.982 24.9753 128.988 24.9766 128.993C24.9779 128.997 24.9791 129.002 24.9791 129.008C24.9791 129.062 24.9652 129.114 24.9514 129.165C24.9429 129.196 24.9345 129.227 24.9293 129.259C24.9225 129.292 24.9177 129.325 24.913 129.357C24.9038 129.419 24.8949 129.479 24.8734 129.535C24.8508 129.596 24.8141 129.65 24.7778 129.704C24.7644 129.724 24.7511 129.744 24.7385 129.764C24.7278 129.782 24.7175 129.8 24.7071 129.819C24.6724 129.881 24.6375 129.944 24.5898 129.994C24.5532 130.033 24.5102 130.062 24.4668 130.091C24.442 130.108 24.4171 130.125 24.3931 130.144L24.3876 130.148C24.3755 130.158 24.3634 130.167 24.3513 130.177L24.3494 130.179C24.2897 130.227 24.2297 130.276 24.1585 130.308C24.1135 130.328 24.0638 130.338 24.0129 130.348C23.9831 130.354 23.9529 130.36 23.9231 130.368C23.891 130.375 23.8596 130.385 23.8281 130.395C23.7727 130.412 23.717 130.43 23.6567 130.434H23.5991H21.4578L19.4686 130.537L17.5773 130.947L15.5993 131.592C15.5916 131.597 15.5827 131.597 15.5742 131.598L15.5702 131.598C15.5678 131.598 15.5654 131.598 15.5632 131.599C15.5581 131.6 15.5528 131.603 15.5477 131.606L15.5437 131.609C15.5409 131.611 15.5381 131.612 15.5357 131.613L13.5971 132.14L11.7755 132.974L10.0655 133.909L8.44235 135.06L6.76728 136.354L5.18854 137.766L3.76214 139.132L2.81762 140.257L4.15534 150.606L5.2791 151.258C5.28495 151.262 5.28873 151.264 5.29071 151.27C5.29457 151.27 5.30033 151.27 5.30222 151.272L7.0853 152.351L8.90885 153.292L10.7323 153.916L12.6812 154.447L14.5492 154.872L16.6132 155.087L18.6918 155.302H20.5435L22.4546 154.886C22.4795 154.882 22.5044 154.89 22.531 154.885C22.5525 154.882 22.574 154.866 22.5946 154.864L24.5048 154.656L26.1073 154.14C26.1787 154.115 26.2534 154.127 26.3247 154.115C26.39 154.107 26.4485 154.075 26.5172 154.075C26.537 154.075 26.5559 154.087 26.5756 154.087C26.6779 154.089 26.7681 154.118 26.8686 154.147C26.9451 154.167 27.0285 154.181 27.0998 154.218C27.1771 154.258 27.2407 154.312 27.3095 154.363L27.3299 154.378C27.3989 154.426 27.4681 154.475 27.526 154.541C27.5775 154.596 27.6102 154.674 27.6549 154.74C27.7107 154.831 27.7649 154.914 27.8018 155.013C27.8113 155.035 27.8267 155.051 27.8319 155.073C27.8534 155.142 27.8422 155.215 27.8534 155.282C27.8654 155.355 27.8955 155.421 27.8955 155.499C27.8955 155.516 27.8877 155.527 27.8877 155.545L28.5958 159.407L32.6301 168.609C32.6627 168.676 32.661 168.754 32.6799 168.826C32.7031 168.919 32.7358 169.01 32.7418 169.104C32.7478 169.195 32.7323 169.279 32.7203 169.372C32.7091 169.466 32.7031 169.555 32.6765 169.643C32.649 169.726 32.6034 169.799 32.5605 169.877C32.5167 169.959 32.478 170.044 32.4196 170.116C32.3637 170.184 32.2924 170.231 32.2236 170.289C32.1618 170.34 32.1171 170.402 32.0458 170.446L30.103 171.562C30.0969 171.565 30.0918 171.562 30.0858 171.568C30.0815 171.568 30.0815 171.571 30.0798 171.573L28.2426 172.579L26.5774 173.587L25.0487 174.953L23.4608 176.373L22.1306 177.745L20.8254 179.295L19.7169 181.063L18.6411 182.949L18.6394 182.952L17.7388 184.608L17.0257 186.6L16.5788 188.06L21.6829 197L22.9727 197.297L24.9542 197.501H28.9447L30.9373 197.297L32.8672 196.881L34.8023 196.249L36.6567 195.505L38.5634 194.63L40.2733 193.696L41.8785 192.557L43.1218 191.491C43.1493 191.469 43.1803 191.461 43.2069 191.443C43.2335 191.427 43.2473 191.396 43.2782 191.375C43.3306 191.344 43.3899 191.338 43.4458 191.312C43.5326 191.272 43.6159 191.235 43.7061 191.213C43.7912 191.192 43.8737 191.191 43.9622 191.184C44.0533 191.184 44.1358 191.183 44.2251 191.197C44.3136 191.214 44.3944 191.24 44.4795 191.274C44.5603 191.304 44.6393 191.334 44.7141 191.382C44.7835 191.424 44.8433 191.48 44.9052 191.539L44.9263 191.558C44.971 191.602 45.0251 191.624 45.0672 191.675C45.0887 191.704 45.0939 191.735 45.1136 191.767C45.1308 191.789 45.16 191.807 45.1772 191.835L47.0255 194.907L54.1248 201.789C54.1807 201.841 54.2065 201.914 54.252 201.974C54.3122 202.058 54.3818 202.138 54.4256 202.229C54.4608 202.307 54.4686 202.392 54.4875 202.471C54.5124 202.569 54.545 202.66 54.5511 202.76C54.5571 202.845 54.5321 202.933 54.5201 203.018C54.5064 203.113 54.5064 203.205 54.4763 203.296C54.4454 203.386 54.3852 203.465 54.3354 203.551C54.295 203.618 54.2752 203.698 54.2194 203.762L52.8514 205.39L51.5745 207.039L50.4472 208.623L49.422 210.419L48.5181 212.391L47.7791 214.457L47.157 216.377L46.6457 218.375L46.345 220.336L46.2427 222.572V224.487L46.314 225.932L54.3182 232.413L55.6715 231.974C55.6905 231.968 55.7094 231.974 55.7291 231.968C55.748 231.962 55.7661 231.946 55.7867 231.94L57.6487 231.512L59.54 230.797L61.4407 229.925L63.1507 228.99L64.7558 227.851L66.3248 226.556L67.8501 225.191L69.1493 223.645L70.4038 222.027L71.5509 220.2L72.3973 218.78C72.4025 218.771 72.4162 218.764 72.4223 218.753C72.4317 218.736 72.4317 218.723 72.4394 218.709C72.4893 218.635 72.5606 218.591 72.619 218.532C72.68 218.468 72.7325 218.4 72.8021 218.349C72.8785 218.293 72.9679 218.267 73.0564 218.23C73.1312 218.198 73.205 218.156 73.2858 218.138C73.3683 218.119 73.4551 218.127 73.5402 218.127C73.633 218.122 73.7215 218.111 73.816 218.128C73.9028 218.144 73.9793 218.188 74.0626 218.222C74.1374 218.252 74.2207 218.261 74.292 218.31C74.3015 218.318 74.3075 218.329 74.3187 218.337C74.3324 218.347 74.3462 218.347 74.3573 218.355L77.7695 220.808L86.993 224.308C87.0102 224.314 87.0179 224.328 87.0351 224.333C87.0488 224.339 87.066 224.339 87.0798 224.345C87.1528 224.379 87.2009 224.435 87.2628 224.478C87.3436 224.536 87.4286 224.582 87.4922 224.648C87.5558 224.713 87.5962 224.793 87.646 224.866C87.6967 224.94 87.75 225.011 87.7869 225.097C87.8213 225.182 87.8316 225.27 87.8488 225.361C87.8677 225.449 87.8952 225.535 87.8952 225.625C87.8952 225.725 87.8694 225.816 87.8505 225.914C87.8368 225.99 87.8445 226.069 87.8179 226.143C87.8136 226.152 87.8024 226.158 87.7964 226.171C87.7904 226.19 87.793 226.21 87.7852 226.231L86.9638 228.135L86.4688 230.075L86.0426 232.378L85.7376 234.262L85.6353 236.281V238.496L85.8347 240.448L86.2506 242.38V242.382L86.7842 244.697V244.699L87.2817 246.649L88.0722 248.383L88.7407 249.612L98.4385 252.484L99.6183 251.572C99.626 251.566 99.6381 251.566 99.6458 251.558C99.6535 251.552 99.657 251.544 99.6647 251.538L101.271 250.401L102.677 248.848C102.683 248.842 102.691 248.84 102.697 248.834C102.702 248.83 102.705 248.818 102.71 248.812L104.081 247.398L105.361 245.874L106.369 244.106L107.323 242.251L108.243 240.457L108.854 238.571L109.472 236.551L109.879 234.555L110.089 232.932C110.093 232.907 110.113 232.88 110.114 232.855C110.116 232.829 110.111 232.803 110.116 232.777C110.133 232.712 110.174 232.662 110.199 232.598L110.211 232.568C110.239 232.49 110.269 232.411 110.315 232.342C110.367 232.257 110.432 232.191 110.502 232.123L110.509 232.116C110.56 232.061 110.609 232.01 110.669 231.966C110.751 231.906 110.839 231.867 110.931 231.827L110.955 231.817C111.018 231.793 111.08 231.763 111.145 231.746C111.244 231.724 111.348 231.724 111.452 231.724C111.516 231.724 111.572 231.702 111.635 231.71C111.664 231.711 111.685 231.732 111.71 231.738C111.736 231.741 111.761 231.731 111.787 231.739L115.045 232.58L124.885 232.145C124.895 232.145 124.905 232.151 124.913 232.151C124.924 232.151 124.932 232.145 124.944 232.145C125.454 232.145 125.885 232.448 126.123 232.874C126.148 232.915 126.181 232.946 126.2 232.992C126.237 233.077 126.245 233.172 126.264 233.26C126.283 233.342 126.319 233.42 126.321 233.511C126.321 233.523 126.319 233.531 126.319 233.543C126.319 233.554 126.325 233.562 126.325 233.574V235.58L126.636 237.704V237.71L126.946 239.74L127.457 241.738L128.07 243.633L128.897 245.657L129.82 247.456L130.84 249.244L132.07 250.835L133.419 252.437L134.823 253.989L135.9 254.805L145.943 253.511L146.745 252.23L147.693 250.389L148.508 248.707L149.217 246.723L149.731 244.722L150.147 242.666L150.446 240.706V236.545L150.248 234.592L149.833 232.66V232.658L149.407 230.785C149.403 230.766 149.407 230.75 149.405 230.731C149.403 230.712 149.388 230.693 149.386 230.674C149.38 230.65 149.389 230.624 149.388 230.602C149.381 230.548 149.357 230.503 149.357 230.452C149.357 230.395 149.384 230.346 149.389 230.292C149.395 230.247 149.4 230.207 149.407 230.161C149.418 230.121 149.428 230.083 149.44 230.043C149.465 229.964 149.498 229.884 149.54 229.807C149.561 229.756 149.584 229.71 149.611 229.664C149.644 229.614 149.682 229.576 149.721 229.53C149.742 229.507 149.754 229.475 149.773 229.453C149.792 229.431 149.821 229.425 149.843 229.406C149.893 229.363 149.927 229.318 149.983 229.28C150.035 229.242 150.101 229.221 150.163 229.188C150.218 229.167 150.267 229.141 150.322 229.123C150.361 229.109 150.388 229.081 150.431 229.069C150.45 229.065 150.469 229.073 150.487 229.068C150.51 229.065 150.523 229.049 150.542 229.047L154.563 228.409L163.561 224.15C163.577 224.145 163.59 224.148 163.603 224.142C163.619 224.137 163.628 224.123 163.64 224.117C163.719 224.085 163.802 224.087 163.883 224.073C163.972 224.053 164.059 224.025 164.143 224.025C164.238 224.025 164.321 224.051 164.409 224.071C164.496 224.091 164.583 224.096 164.664 224.131C164.743 224.164 164.811 224.222 164.882 224.27C164.958 224.322 165.038 224.363 165.104 224.429C165.167 224.491 165.206 224.572 165.256 224.644C165.307 224.715 165.366 224.769 165.404 224.849C165.41 224.863 165.406 224.88 165.412 224.894C165.416 224.906 165.427 224.914 165.433 224.928L166.148 226.821L167.168 228.614L168.301 230.417L169.446 232.026L170.753 233.582L172.185 234.95L173.856 236.352C173.856 236.354 173.862 236.354 173.862 236.354L175.38 237.605L177.068 238.527H177.07L178.98 239.513L180.836 240.366L182.22 240.817L190.947 235.572L191.159 234.179L191.369 232.022L191.471 230.006L191.369 227.989L191.159 225.832L190.86 223.872L190.261 221.911L189.532 219.874L188.711 218.078L187.794 216.388L186.665 214.589L185.743 213.426C185.725 213.406 185.721 213.381 185.704 213.36C185.692 213.343 185.677 213.337 185.665 213.323C185.628 213.265 185.617 213.191 185.59 213.132C185.546 213.037 185.498 212.95 185.476 212.857C185.456 212.77 185.457 212.68 185.456 212.593C185.451 212.497 185.44 212.41 185.453 212.319C185.467 212.227 185.498 212.142 185.53 212.056C185.56 211.97 185.578 211.885 185.625 211.808C185.673 211.722 185.743 211.65 185.808 211.577C185.854 211.525 185.879 211.464 185.935 211.418C185.951 211.404 185.97 211.402 185.987 211.39C186.006 211.376 186.016 211.352 186.034 211.339L188.929 209.313L195.62 201.864C195.687 201.789 195.775 201.749 195.851 201.692C195.915 201.642 195.972 201.582 196.042 201.548C196.14 201.503 196.245 201.485 196.349 201.463C196.414 201.445 196.481 201.417 196.552 201.411C196.649 201.405 196.744 201.435 196.84 201.449C196.919 201.463 197 201.461 197.077 201.489C197.161 201.52 197.239 201.58 197.32 201.632C197.389 201.678 197.473 201.697 197.536 201.757L199.155 203.205C199.161 203.213 199.164 203.221 199.172 203.226C199.176 203.235 199.186 203.235 199.194 203.24L200.734 204.726L202.307 205.843L204.08 206.811L204.086 206.817C204.092 206.821 204.098 206.821 204.103 206.823L205.994 207.903L207.682 208.62L209.577 209.239L211.628 209.555C211.645 209.559 211.656 209.571 211.673 209.573C211.688 209.575 211.706 209.571 211.724 209.573L213.6 210L215.584 210.205H217.629L219.102 210.052L225.188 201.682L224.971 200.266L224.372 198.308L223.647 196.389L222.814 194.562L221.884 192.749L220.773 190.98L219.563 189.414L218.219 188.029C218.213 188.025 218.211 188.013 218.205 188.007C218.197 188.001 218.192 187.999 218.186 187.993L216.746 186.402L215.231 185.154L213.633 184.018L212.205 183.283C212.176 183.269 212.16 183.242 212.13 183.223C212.11 183.212 212.089 183.218 212.072 183.205C212.01 183.166 211.98 183.108 211.927 183.06C211.858 183 211.788 182.937 211.73 182.863C211.675 182.792 211.645 182.713 211.603 182.633C211.563 182.549 211.524 182.466 211.499 182.379C211.478 182.291 211.473 182.202 211.467 182.114C211.461 182.019 211.45 181.931 211.461 181.839C211.47 181.749 211.497 181.668 211.526 181.583L211.532 181.565C211.552 181.5 211.552 181.432 211.584 181.369C211.596 181.347 211.617 181.331 211.634 181.309C211.644 181.287 211.644 181.257 211.661 181.235L213.961 177.573L217.465 168.159V168.155L217.471 168.141C217.504 168.059 217.562 167.996 217.606 167.922C217.656 167.84 217.695 167.744 217.76 167.671C217.833 167.59 217.928 167.542 218.017 167.483C218.075 167.439 218.124 167.385 218.188 167.354C218.275 167.316 218.369 167.31 218.454 167.288C218.541 167.269 218.624 167.231 218.709 167.228C218.805 167.224 218.901 167.258 219.003 167.276C219.079 167.294 219.162 167.284 219.239 167.316L219.253 167.322H219.254C219.258 167.322 219.258 167.324 219.26 167.324L221.253 168.081L223.21 168.719L225 169.129L227.034 169.235C227.045 169.235 227.057 169.243 227.07 169.243C227.082 169.246 227.092 169.241 227.104 169.241L229.182 169.455H231.202L233.073 169.241H233.075L235.072 168.932L237.021 168.296C237.028 168.294 237.039 168.296 237.046 168.294C237.054 168.29 237.059 168.284 237.067 168.282L238.904 167.755L240.735 166.914L242.087 166.218L244.673 156.142L243.878 155.018C243.876 155.015 243.876 155.013 243.876 155.013L242.634 153.303L241.323 151.85L239.87 150.458L238.276 149.122L236.651 148.177C236.645 148.173 236.643 148.167 236.637 148.165C236.634 148.164 236.631 148.165 236.626 148.164L234.842 147.083L233.022 146.143L231.194 145.513L229.245 144.983L227.366 144.555L225.707 144.34C225.696 144.34 225.689 144.328 225.675 144.328C225.652 144.322 225.627 144.326 225.6 144.32C225.53 144.304 225.475 144.262 225.409 144.237C225.318 144.199 225.224 144.173 225.147 144.12C225.073 144.071 225.016 144.002 224.954 143.943C224.889 143.883 224.822 143.823 224.769 143.749C224.713 143.676 224.687 143.588 224.648 143.505C224.613 143.426 224.572 143.348 224.551 143.26C224.53 143.163 224.532 143.069 224.53 142.972C224.526 142.897 224.501 142.825 224.513 142.747C224.517 142.728 224.53 142.714 224.53 142.694C224.536 142.674 224.529 142.656 224.53 142.636L225.255 139.014L224.937 129.053C224.937 129.045 224.943 129.039 224.943 129.031C224.943 129.023 224.937 129.013 224.937 129.005C224.937 128.908 224.974 128.822 224.993 128.731C225.01 128.645 225.012 128.552 225.043 128.475C225.081 128.383 225.139 128.305 225.195 128.226C225.239 128.158 225.276 128.079 225.334 128.015C225.396 127.948 225.481 127.904 225.555 127.85C225.625 127.798 225.689 127.738 225.766 127.701C225.848 127.665 225.937 127.659 226.026 127.637C226.109 127.621 226.192 127.58 226.281 127.577C226.288 127.577 226.298 127.584 226.306 127.584C226.309 127.584 226.319 127.577 226.327 127.577H228.43L230.425 127.372L232.324 126.959L234.197 126.313C234.214 126.307 234.228 126.313 234.247 126.307C234.259 126.301 234.268 126.29 234.286 126.287L236.223 125.761L238.045 124.925L239.867 123.987L241.611 122.716C241.617 122.714 241.617 122.714 241.622 122.714C241.622 122.714 241.626 122.708 241.628 122.706Z" fill="#87EEEE"/>
<path d="M243.274 121.542L241.628 122.706C241.626 122.708 241.622 122.714 241.622 122.714C241.617 122.714 241.617 122.714 241.611 122.716L239.867 123.987L238.045 124.925L236.223 125.761L234.286 126.287C234.268 126.29 234.259 126.301 234.247 126.307C234.228 126.313 234.214 126.307 234.197 126.313L232.324 126.959L230.425 127.372L228.43 127.577H226.327C226.319 127.577 226.309 127.584 226.306 127.584C226.298 127.584 226.288 127.577 226.281 127.577C226.192 127.58 226.109 127.621 226.026 127.637C225.937 127.659 225.848 127.665 225.766 127.701C225.689 127.738 225.625 127.798 225.555 127.85C225.481 127.904 225.396 127.948 225.334 128.015C225.276 128.079 225.239 128.158 225.195 128.226C225.139 128.305 225.081 128.383 225.043 128.475C225.012 128.552 225.01 128.645 224.993 128.731C224.974 128.822 224.937 128.908 224.937 129.005C224.937 129.013 224.943 129.023 224.943 129.031C224.943 129.039 224.937 129.045 224.937 129.053L225.255 139.014L224.53 142.636C224.529 142.656 224.536 142.674 224.53 142.694C224.53 142.714 224.517 142.728 224.513 142.747C224.501 142.825 224.526 142.897 224.53 142.972C224.532 143.069 224.53 143.163 224.551 143.26C224.572 143.348 224.613 143.426 224.648 143.505C224.687 143.588 224.713 143.676 224.769 143.749C224.822 143.823 224.889 143.883 224.954 143.943C225.016 144.002 225.073 144.071 225.147 144.12C225.224 144.173 225.318 144.199 225.409 144.237C225.475 144.262 225.53 144.304 225.6 144.32C225.627 144.326 225.652 144.322 225.675 144.328C225.689 144.328 225.696 144.34 225.707 144.34L227.366 144.555L229.245 144.983L231.194 145.513L233.022 146.143L234.842 147.083L236.626 148.164C236.631 148.165 236.634 148.164 236.637 148.165C236.643 148.167 236.645 148.173 236.651 148.177L238.276 149.122L239.87 150.458L241.323 151.85L242.634 153.303L243.876 155.013C243.876 155.013 243.876 155.015 243.878 155.018L244.673 156.142L242.087 166.218L240.735 166.914L238.904 167.755L237.067 168.282C237.059 168.284 237.054 168.29 237.046 168.294C237.039 168.296 237.028 168.294 237.021 168.296L235.072 168.932L233.075 169.241H233.073L231.202 169.455H229.182L227.104 169.241C227.092 169.241 227.082 169.246 227.07 169.243C227.057 169.243 227.045 169.235 227.034 169.235L225 169.129L223.21 168.719L221.253 168.081L219.26 167.324C219.258 167.324 219.258 167.322 219.254 167.322H219.253L219.239 167.316C219.162 167.284 219.079 167.294 219.003 167.276C218.901 167.258 218.805 167.224 218.709 167.228C218.624 167.231 218.541 167.269 218.454 167.288C218.369 167.31 218.275 167.316 218.188 167.354C218.124 167.385 218.075 167.439 218.017 167.483C217.928 167.542 217.833 167.59 217.76 167.671C217.695 167.744 217.656 167.84 217.606 167.922C217.562 167.996 217.504 168.059 217.471 168.141L217.465 168.155V168.159L213.961 177.573L211.661 181.235C211.644 181.257 211.644 181.287 211.634 181.309C211.617 181.331 211.596 181.347 211.584 181.369C211.552 181.432 211.552 181.5 211.532 181.565L211.526 181.583C211.497 181.668 211.47 181.749 211.461 181.839C211.45 181.931 211.461 182.019 211.467 182.114C211.473 182.202 211.478 182.291 211.499 182.379C211.524 182.466 211.563 182.549 211.603 182.633C211.645 182.713 211.675 182.792 211.73 182.863C211.788 182.937 211.858 183 211.927 183.06C211.98 183.108 212.01 183.166 212.072 183.205C212.089 183.218 212.11 183.212 212.13 183.223C212.16 183.242 212.176 183.269 212.205 183.283L213.633 184.018L215.231 185.154L216.746 186.402L218.186 187.993C218.192 187.999 218.197 188.001 218.205 188.007C218.211 188.013 218.213 188.025 218.219 188.029L219.563 189.414L220.773 190.98L221.884 192.749L222.814 194.562L223.647 196.389L224.372 198.308L224.971 200.266L225.188 201.682L219.102 210.052L217.629 210.205H215.584L213.6 210L211.724 209.573C211.706 209.571 211.688 209.575 211.673 209.573C211.656 209.571 211.645 209.559 211.628 209.555L209.577 209.239L207.682 208.62L205.994 207.903L204.103 206.823C204.098 206.821 204.092 206.821 204.086 206.817L204.08 206.811L202.307 205.843L200.734 204.726L199.194 203.24C199.186 203.235 199.176 203.235 199.172 203.226C199.164 203.221 199.161 203.213 199.155 203.205L197.536 201.757C197.473 201.697 197.389 201.678 197.32 201.632C197.239 201.58 197.161 201.52 197.077 201.489C197 201.461 196.919 201.463 196.84 201.449C196.744 201.435 196.649 201.405 196.552 201.411C196.481 201.417 196.414 201.445 196.349 201.463C196.245 201.485 196.14 201.503 196.042 201.548C195.972 201.582 195.915 201.642 195.851 201.692C195.775 201.749 195.687 201.789 195.62 201.864L188.929 209.313L186.034 211.339C186.016 211.352 186.006 211.376 185.987 211.39C185.97 211.402 185.951 211.404 185.935 211.418C185.879 211.464 185.854 211.525 185.808 211.577C185.743 211.65 185.673 211.722 185.625 211.808C185.578 211.885 185.56 211.97 185.53 212.056C185.498 212.142 185.467 212.227 185.453 212.319C185.44 212.41 185.451 212.497 185.456 212.593C185.457 212.68 185.456 212.77 185.476 212.857C185.498 212.95 185.546 213.037 185.59 213.132C185.617 213.191 185.628 213.265 185.665 213.323C185.677 213.337 185.692 213.343 185.704 213.36C185.721 213.381 185.725 213.406 185.743 213.426L186.665 214.589L187.794 216.388L188.711 218.078L189.532 219.874L190.261 221.911L190.86 223.872L191.159 225.832L191.369 227.989L191.471 230.006L191.369 232.022L191.159 234.179L190.947 235.572L182.22 240.817L180.836 240.366L178.98 239.513L177.07 238.527H177.068L175.38 237.605L173.862 236.354C173.862 236.354 173.856 236.354 173.856 236.352L172.185 234.95L170.753 233.582L169.446 232.026L168.301 230.417L167.168 228.614L166.148 226.821L165.433 224.928C165.427 224.914 165.416 224.906 165.412 224.894C165.406 224.88 165.41 224.863 165.404 224.849C165.366 224.769 165.307 224.715 165.256 224.644C165.206 224.572 165.167 224.491 165.104 224.429C165.038 224.363 164.958 224.322 164.882 224.27C164.811 224.222 164.743 224.164 164.664 224.131C164.583 224.096 164.496 224.091 164.409 224.071C164.321 224.051 164.238 224.025 164.143 224.025C164.059 224.025 163.972 224.053 163.883 224.073C163.802 224.087 163.719 224.085 163.64 224.117C163.628 224.123 163.619 224.137 163.603 224.142C163.59 224.148 163.577 224.145 163.561 224.15L154.563 228.409L150.542 229.047C150.523 229.049 150.51 229.065 150.487 229.068C150.469 229.073 150.45 229.065 150.431 229.069C150.388 229.081 150.361 229.109 150.322 229.123C150.267 229.141 150.218 229.167 150.163 229.188C150.101 229.221 150.035 229.242 149.983 229.28C149.927 229.318 149.893 229.363 149.843 229.406C149.821 229.425 149.792 229.431 149.773 229.453C149.754 229.475 149.742 229.507 149.721 229.53C149.682 229.576 149.644 229.614 149.611 229.664C149.584 229.71 149.561 229.756 149.54 229.807C149.498 229.884 149.465 229.964 149.44 230.043C149.428 230.083 149.418 230.121 149.407 230.161C149.4 230.207 149.395 230.247 149.389 230.292C149.384 230.346 149.357 230.395 149.357 230.452C149.357 230.503 149.381 230.548 149.388 230.602C149.389 230.624 149.38 230.65 149.386 230.674C149.388 230.693 149.403 230.712 149.405 230.731C149.407 230.75 149.403 230.766 149.407 230.785L149.833 232.658V232.66L150.248 234.592L150.446 236.545V240.706L150.147 242.666L149.731 244.722L149.217 246.723L148.508 248.707L147.693 250.389L146.745 252.23L145.943 253.511L135.9 254.805L134.823 253.989L133.419 252.437L132.07 250.835L130.84 249.244L129.82 247.456L128.897 245.657L128.07 243.633L127.457 241.738L126.946 239.74L126.636 237.71V237.704L126.325 235.58V233.574C126.325 233.562 126.319 233.554 126.319 233.543C126.319 233.531 126.321 233.523 126.321 233.511C126.319 233.42 126.283 233.342 126.264 233.26C126.245 233.172 126.237 233.077 126.2 232.992C126.181 232.946 126.148 232.915 126.123 232.874C125.885 232.448 125.454 232.145 124.944 232.145C124.932 232.145 124.924 232.151 124.913 232.151C124.905 232.151 124.895 232.145 124.885 232.145L115.045 232.58L111.787 231.739C111.761 231.731 111.736 231.741 111.71 231.738C111.685 231.732 111.664 231.711 111.635 231.71C111.572 231.702 111.516 231.724 111.452 231.724C111.348 231.724 111.244 231.724 111.145 231.746C111.08 231.763 111.018 231.793 110.955 231.817L110.931 231.827C110.839 231.867 110.751 231.906 110.669 231.966C110.609 232.01 110.56 232.061 110.509 232.116L110.502 232.123C110.432 232.191 110.367 232.257 110.315 232.342C110.269 232.411 110.239 232.49 110.211 232.568L110.199 232.598C110.174 232.662 110.133 232.712 110.116 232.777C110.111 232.803 110.116 232.829 110.114 232.855C110.113 232.88 110.093 232.907 110.089 232.932L109.879 234.555L109.472 236.551L108.854 238.571L108.243 240.457L107.323 242.251L106.369 244.106L105.361 245.874L104.081 247.398L102.71 248.812C102.705 248.818 102.702 248.83 102.697 248.834C102.691 248.84 102.683 248.842 102.677 248.848L101.271 250.401L99.6647 251.538C99.657 251.544 99.6535 251.552 99.6458 251.558C99.6381 251.566 99.626 251.566 99.6183 251.572L98.4385 252.484L88.7407 249.612L88.0722 248.383L87.2817 246.649L86.7842 244.699V244.697L86.2506 242.382V242.38L85.8347 240.448L85.6353 238.496V236.281L85.7376 234.262L86.0426 232.378L86.4688 230.075L86.9638 228.135L87.7852 226.231C87.793 226.21 87.7904 226.19 87.7964 226.171C87.8024 226.158 87.8136 226.152 87.8179 226.143C87.8445 226.069 87.8368 225.99 87.8505 225.914C87.8694 225.816 87.8952 225.725 87.8952 225.625C87.8952 225.535 87.8677 225.449 87.8488 225.361C87.8316 225.27 87.8213 225.182 87.7869 225.097C87.75 225.011 87.6967 224.94 87.646 224.866C87.5962 224.793 87.5558 224.713 87.4922 224.648C87.4286 224.582 87.3436 224.536 87.2628 224.478C87.2009 224.435 87.1528 224.379 87.0798 224.345C87.066 224.339 87.0488 224.339 87.0351 224.333C87.0179 224.328 87.0102 224.314 86.993 224.308L77.7695 220.808L74.3573 218.355C74.3462 218.347 74.3324 218.347 74.3187 218.337C74.3075 218.329 74.3015 218.318 74.292 218.31C74.2207 218.261 74.1374 218.252 74.0626 218.222C73.9793 218.188 73.9028 218.144 73.816 218.128C73.7215 218.111 73.633 218.122 73.5402 218.127C73.4551 218.127 73.3683 218.119 73.2858 218.138C73.205 218.156 73.1312 218.198 73.0564 218.23C72.9679 218.267 72.8785 218.293 72.8021 218.349C72.7325 218.4 72.68 218.468 72.619 218.532C72.5606 218.591 72.4893 218.635 72.4394 218.709C72.4317 218.723 72.4317 218.736 72.4223 218.753C72.4162 218.764 72.4025 218.771 72.3973 218.78L71.5509 220.2L70.4038 222.027L69.1493 223.645L67.8501 225.191L66.3248 226.556L64.7558 227.851L63.1507 228.99L61.4407 229.925L59.54 230.797L57.6487 231.512L55.7867 231.94C55.7661 231.946 55.748 231.962 55.7291 231.968C55.7094 231.974 55.6905 231.968 55.6715 231.974L54.3182 232.413L46.314 225.932L46.2427 224.487V222.572L46.345 220.336L46.6457 218.375L47.157 216.377L47.7791 214.457L48.5181 212.391L49.422 210.419L50.4472 208.623L51.5745 207.039L52.8514 205.39L54.2194 203.762C54.2752 203.698 54.295 203.618 54.3354 203.551C54.3852 203.465 54.4454 203.386 54.4763 203.296C54.5064 203.205 54.5064 203.113 54.5201 203.018C54.5321 202.933 54.5571 202.845 54.5511 202.76C54.545 202.66 54.5124 202.569 54.4875 202.471C54.4686 202.392 54.4608 202.307 54.4256 202.229C54.3818 202.138 54.3122 202.058 54.252 201.974C54.2065 201.914 54.1807 201.841 54.1248 201.789L47.0255 194.907L45.1772 191.835C45.16 191.807 45.1308 191.789 45.1136 191.767C45.0939 191.735 45.0887 191.704 45.0672 191.675C45.0251 191.624 44.971 191.602 44.9263 191.558L44.9052 191.539C44.8433 191.48 44.7835 191.424 44.7141 191.382C44.6393 191.334 44.5603 191.304 44.4795 191.274C44.3944 191.24 44.3136 191.214 44.2251 191.197C44.1358 191.183 44.0533 191.184 43.9622 191.184C43.8737 191.191 43.7912 191.192 43.7061 191.213C43.6159 191.235 43.5326 191.272 43.4458 191.312C43.3899 191.338 43.3306 191.344 43.2782 191.375C43.2473 191.396 43.2335 191.427 43.2069 191.443C43.1803 191.461 43.1493 191.469 43.1218 191.491L41.8785 192.557L40.2733 193.696L38.5634 194.63L36.6567 195.505L34.8023 196.249L32.8672 196.881L30.9373 197.297L28.9447 197.501H24.9542L22.9727 197.297L21.6829 197L16.5788 188.06L17.0257 186.6L17.7388 184.608L18.6394 182.952L18.6411 182.949L19.7169 181.063L20.8254 179.295L22.1306 177.745L23.4608 176.373L25.0487 174.953L26.5774 173.587L28.2426 172.579L30.0798 171.573C30.0815 171.571 30.0815 171.568 30.0858 171.568C30.0918 171.562 30.0969 171.565 30.103 171.562L32.0458 170.446C32.1171 170.402 32.1618 170.34 32.2236 170.289C32.2924 170.231 32.3637 170.184 32.4196 170.116C32.478 170.044 32.5167 169.959 32.5605 169.877C32.6034 169.799 32.649 169.726 32.6765 169.643C32.7031 169.555 32.7091 169.466 32.7203 169.372C32.7323 169.279 32.7478 169.195 32.7418 169.104C32.7358 169.01 32.7031 168.919 32.6799 168.826C32.661 168.754 32.6627 168.676 32.6301 168.609L28.5958 159.407L27.8877 155.545C27.8877 155.527 27.8955 155.516 27.8955 155.499C27.8955 155.421 27.8654 155.355 27.8534 155.282C27.8422 155.215 27.8534 155.142 27.8319 155.073C27.8267 155.051 27.8113 155.035 27.8018 155.013C27.7649 154.914 27.7107 154.831 27.6549 154.74C27.6102 154.674 27.5775 154.596 27.526 154.541C27.4681 154.475 27.3989 154.426 27.3299 154.378L27.3095 154.363C27.2407 154.312 27.1771 154.258 27.0998 154.218C27.0285 154.181 26.9451 154.167 26.8686 154.147C26.7681 154.118 26.6779 154.089 26.5756 154.087C26.5559 154.087 26.537 154.075 26.5172 154.075C26.4485 154.075 26.39 154.107 26.3247 154.115C26.2534 154.127 26.1787 154.115 26.1073 154.14L24.5048 154.656L22.5946 154.864C22.574 154.866 22.5525 154.882 22.531 154.885C22.5044 154.89 22.4795 154.882 22.4546 154.886L20.5435 155.302H18.6918L16.6132 155.087L14.5492 154.872L12.6812 154.447L10.7323 153.916L8.90885 153.292L7.0853 152.351L5.30222 151.272C5.30033 151.27 5.29457 151.27 5.29071 151.27C5.28873 151.264 5.28495 151.262 5.2791 151.258L4.15534 150.606L2.81762 140.257L3.76214 139.132L5.18854 137.766L6.76728 136.354L8.44235 135.06L10.0655 133.909L11.7755 132.974L13.5971 132.14L15.5357 131.613C15.5381 131.612 15.5409 131.611 15.5437 131.609L15.5477 131.606C15.5528 131.603 15.5581 131.6 15.5632 131.599C15.5654 131.598 15.5678 131.598 15.5702 131.598L15.5742 131.598C15.5827 131.597 15.5916 131.597 15.5993 131.592L17.5773 130.947L19.4686 130.537L21.4578 130.434H23.5991H23.6567C23.717 130.43 23.7727 130.412 23.8281 130.395C23.8596 130.385 23.891 130.375 23.9231 130.368C23.9529 130.36 23.9831 130.354 24.0129 130.348C24.0638 130.338 24.1135 130.328 24.1585 130.308C24.2297 130.276 24.2897 130.227 24.3494 130.179L24.3513 130.177C24.3634 130.167 24.3755 130.158 24.3876 130.148L24.3931 130.144C24.4171 130.125 24.442 130.108 24.4668 130.091C24.5102 130.062 24.5532 130.033 24.5898 129.994C24.6375 129.944 24.6724 129.881 24.7071 129.819C24.7175 129.8 24.7278 129.782 24.7385 129.764C24.7511 129.744 24.7644 129.724 24.7778 129.704C24.8141 129.65 24.8508 129.596 24.8734 129.535C24.8949 129.479 24.9038 129.419 24.913 129.357C24.9177 129.325 24.9225 129.292 24.9293 129.259C24.9345 129.227 24.9429 129.196 24.9514 129.165C24.9652 129.114 24.9791 129.062 24.9791 129.008C24.9791 129.002 24.9779 128.997 24.9766 128.993C24.9753 128.988 24.9739 128.982 24.9739 128.976C24.9739 128.964 24.9757 128.956 24.9757 128.945L24.5495 118.683L25.3649 115.319C25.3709 115.291 25.3649 115.268 25.3666 115.242C25.3698 115.225 25.3755 115.21 25.3811 115.195C25.3862 115.182 25.3913 115.168 25.3941 115.154C25.3981 115.115 25.393 115.078 25.3879 115.041C25.3842 115.013 25.3804 114.985 25.3804 114.957C25.3804 114.86 25.3804 114.766 25.3606 114.673C25.3448 114.6 25.3163 114.531 25.2883 114.463L25.2721 114.423L25.2647 114.405C25.2313 114.325 25.1991 114.248 25.1527 114.178C25.112 114.118 25.0645 114.067 25.0148 114.016L24.9932 113.994L24.9808 113.981C24.9172 113.915 24.8562 113.852 24.7823 113.805C24.7076 113.751 24.6225 113.718 24.54 113.681C24.4781 113.655 24.43 113.614 24.3621 113.595C24.3355 113.587 24.3046 113.598 24.2779 113.593C24.2504 113.587 24.2272 113.568 24.2006 113.565L22.5448 113.351L20.6655 112.923L18.7554 112.402L16.7928 111.55C16.7868 111.547 16.779 111.55 16.773 111.544C16.7679 111.544 16.7653 111.538 16.7601 111.536L14.9385 110.806L13.3574 109.78L11.681 108.591L10.1248 107.414L8.71216 106.06L7.27804 104.478L6.02693 102.865L5.24439 101.766L7.81972 91.531L8.99358 91.0296L11.0193 90.2598C11.0331 90.2545 11.0408 90.2422 11.0563 90.2387C11.07 90.2299 11.0872 90.2326 11.1027 90.2264L12.9123 89.3977L14.819 88.9816L16.7696 88.5602L18.7588 88.4573H22.8567L24.8536 88.7652L26.7973 89.1848L28.6705 89.8305H28.6723L30.6795 90.5941L30.6812 90.5959C30.8394 90.6557 30.9957 90.6812 31.1538 90.6812C31.4348 90.6812 31.7089 90.5941 31.9358 90.4314C31.9916 90.3918 32.0114 90.3135 32.0578 90.266L32.0729 90.2514C32.2218 90.1076 32.3724 89.9623 32.4505 89.747V89.7452V89.7434L35.8506 80.1202L38.1277 76.7069C38.1638 76.6532 38.1716 76.589 38.199 76.5336C38.2429 76.4465 38.2841 76.3568 38.3125 76.2591C38.334 76.1738 38.34 76.0867 38.3451 75.997C38.3529 75.9055 38.3589 75.8184 38.3477 75.7207C38.3357 75.6231 38.303 75.536 38.2764 75.4384C38.2566 75.3785 38.2566 75.3152 38.2257 75.2598L38.1183 75.0363C38.0908 74.9774 38.0427 74.9492 38.01 74.8973C37.9481 74.7997 37.8888 74.7082 37.8055 74.629C37.7849 74.6088 37.7591 74.5973 37.7359 74.5815C37.6362 74.4979 37.5374 74.4082 37.4128 74.3563L36.2734 73.8654L34.6846 72.6364L33.0408 71.2615L31.5758 69.8609L30.2954 68.5396L29.187 66.7714C29.1792 66.7599 29.1681 66.7538 29.156 66.7441C29.1509 66.73 29.1483 66.716 29.1389 66.7001L27.9943 65.092L27.001 63.3537L26.2878 61.4614C26.2826 61.4429 26.2689 61.435 26.2629 61.4209C26.2577 61.4033 26.2577 61.3875 26.2517 61.3699L25.4551 59.6263L25.0582 57.676C25.0564 57.6619 25.047 57.654 25.0444 57.6417C25.0427 57.6276 25.0444 57.6162 25.0427 57.6038L24.6749 56.1664L30.915 47.8495L32.3027 47.6991H34.3246L36.2236 47.9032L38.2111 48.3334C38.224 48.3352 38.2412 48.3352 38.2549 48.3387C38.2626 48.3387 38.2721 48.3466 38.2798 48.3466L40.239 48.6668L42.1122 49.2773L44.0687 50.1263L45.9557 51.101L47.554 52.0273L49.2175 53.3135C49.2175 53.3135 49.2193 53.3135 49.2235 53.3152C49.2235 53.3152 49.2253 53.317 49.2287 53.3214L50.7462 54.4703L52.1666 56.0371C52.1786 56.0512 52.1975 56.0573 52.2112 56.0687C52.2241 56.0872 52.2301 56.1066 52.2473 56.1207C52.3307 56.1981 52.4269 56.2403 52.5214 56.2939C52.5713 56.3212 52.6117 56.3617 52.6658 56.3854C52.8316 56.4532 53.0052 56.4928 53.1822 56.4928C53.3601 56.4928 53.5371 56.4532 53.7029 56.381C53.7605 56.359 53.8052 56.3133 53.8611 56.2816C53.9513 56.2245 54.0458 56.184 54.1274 56.1092C54.1403 56.0951 54.1463 56.0749 54.1601 56.0573C54.173 56.045 54.191 56.0388 54.2039 56.0256L60.9604 48.4011L63.7977 46.727C63.8115 46.7191 63.8166 46.705 63.8304 46.6945C63.8381 46.6892 63.8501 46.6927 63.857 46.6866C63.9266 46.6391 63.973 46.5696 64.0306 46.5097C64.0967 46.4464 64.1715 46.3927 64.2239 46.3188C64.2815 46.2476 64.3064 46.1702 64.3433 46.0884C64.382 46.0092 64.4258 45.9291 64.4473 45.8403C64.4662 45.7541 64.4611 45.667 64.4662 45.5816C64.4722 45.484 64.486 45.3925 64.4722 45.2975C64.4611 45.2095 64.4207 45.1242 64.3897 45.0389C64.3623 44.9588 64.3528 44.8735 64.3124 44.7961C64.3064 44.7846 64.2952 44.7785 64.2875 44.7679C64.2798 44.7565 64.2815 44.7424 64.2738 44.731L63.3002 43.1721C63.2925 43.1598 63.2813 43.1519 63.2736 43.1404C63.2658 43.1281 63.2658 43.1123 63.2538 43.0964L62.1092 41.4874L61.1159 39.75L60.4027 37.8568C60.4027 37.8516 60.3976 37.8516 60.3976 37.8454C60.3976 37.8392 60.3976 37.8375 60.3958 37.8313L59.6706 36.0182L59.1679 34.0477L58.7546 31.924L58.5527 29.928L58.4487 27.8566V25.6855L58.7529 23.7987V23.7908C58.7529 23.7908 58.7546 23.7848 58.7546 23.7828L58.948 22.4826L59.0476 22.2082L67.7779 17.1067L69.0212 17.5599C69.0212 17.5599 69.0273 17.5599 69.029 17.562L70.9357 18.2857L72.6646 19.3355C72.6723 19.3414 72.6817 19.3374 72.6912 19.3434C72.7032 19.3494 72.7084 19.3613 72.7187 19.3653L74.4897 20.3335L76.0845 21.4648L77.7111 22.9361L79.1452 24.3079L80.3809 25.9004L81.6122 27.4911L82.6433 29.2983C82.6511 29.3122 82.6648 29.3162 82.6743 29.3301C82.6863 29.348 82.6863 29.3679 82.6957 29.3838L83.7844 31.0162L84.4805 32.9665C84.4865 32.9806 84.5002 32.9867 84.5054 32.9999C84.5131 33.0219 84.5114 33.0483 84.5234 33.0677C84.5947 33.2313 84.7314 33.3307 84.8474 33.4477C84.911 33.5137 84.9488 33.6069 85.0244 33.6562C85.2461 33.8058 85.497 33.8867 85.7625 33.8928C85.7685 33.8928 85.7745 33.899 85.7797 33.899H85.7857C85.9438 33.8972 86.1002 33.8708 86.2557 33.8119C86.2755 33.8057 86.2867 33.7899 86.3021 33.7794C86.3193 33.7741 86.3391 33.7776 86.3545 33.7679L95.3658 29.5031L98.8647 28.8648C98.9343 28.8529 98.9902 28.8072 99.052 28.7873C99.1328 28.7614 99.2059 28.7356 99.2789 28.6998C99.3949 28.6342 99.4911 28.5467 99.5857 28.4493C99.6226 28.4115 99.6707 28.3957 99.7017 28.3559L100.133 27.7991C100.166 27.7554 100.175 27.7076 100.198 27.6659C100.249 27.5864 100.289 27.5029 100.32 27.4174C100.353 27.3299 100.378 27.2404 100.392 27.149C100.409 27.0635 100.412 26.978 100.412 26.8906C100.412 26.7911 100.399 26.6976 100.376 26.5963C100.364 26.5486 100.374 26.5029 100.359 26.4532L99.9749 25.2642L99.7764 23.4053C99.7764 23.3913 99.7687 23.3834 99.7652 23.3675C99.7652 23.3595 99.767 23.3496 99.7652 23.3397L99.4585 21.3395V19.1585L99.5625 17.1066L99.773 15.1602L100.074 12.9891L100.677 11.2296C100.677 11.2236 100.677 11.2176 100.679 11.2117C100.679 11.2097 100.68 11.2097 100.68 11.2097L101.305 9.27915L102.215 7.30085L103.138 5.50156L103.922 4.3961L114.056 2.9049L115.128 3.8652L116.462 5.45379L117.821 7.07018L118.941 8.64285L119.986 10.4779L121.02 12.2833L121.726 14.1502L122.46 16.21L122.964 18.1803L123.27 20.1864L123.479 22.2124L123.586 24.4153C123.592 24.5466 123.637 24.6638 123.675 24.7812C123.693 24.8348 123.693 24.8945 123.713 24.9461C123.764 25.0515 123.839 25.137 123.91 25.2285C123.949 25.2762 123.972 25.3338 124.014 25.3796C124.085 25.4472 124.178 25.4909 124.263 25.5446C124.324 25.5844 124.378 25.638 124.446 25.6678C124.606 25.7335 124.783 25.7732 124.967 25.7732H125.028L134.868 25.3379L138.13 26.1788C138.163 26.1868 138.195 26.1868 138.232 26.1928C138.25 26.1947 138.265 26.2067 138.282 26.2106C138.346 26.2185 138.408 26.2226 138.465 26.2226C138.76 26.2226 139.026 26.1112 139.256 25.9442C139.281 25.9263 139.302 25.9223 139.321 25.9004C139.533 25.7235 139.679 25.4849 139.763 25.2026C139.769 25.1807 139.795 25.1648 139.801 25.143C139.809 25.1171 139.801 25.0952 139.807 25.0714C139.813 25.0395 139.828 25.0177 139.834 24.9879L140.042 23.3655L140.454 21.3356L140.958 19.3751L141.779 17.4705C141.781 17.4625 141.781 17.4526 141.785 17.4446C141.785 17.4446 141.792 17.4386 141.797 17.4327L142.512 15.6374L143.539 13.8341L144.659 12.0526L145.913 10.4342L147.232 8.86753L148.628 7.53151L150.188 6.35049C150.189 6.34846 150.189 6.3445 150.193 6.3445C150.195 6.34257 150.195 6.34257 150.199 6.34257L151.392 5.42001L161.151 8.08819L161.82 9.46793L162.547 11.2891L163.26 13.2853L163.669 15.2954L164.076 17.4009L164.177 19.4189L164.282 21.4627L164.182 23.5464L163.877 25.5386L163.461 27.5904L162.952 29.7794L162.148 31.5405C162.143 31.5589 162.143 31.5809 162.137 31.5985C162.129 31.6188 162.112 31.6302 162.104 31.6504C162.076 31.7217 162.084 31.7991 162.071 31.873C162.052 31.9663 162.027 32.0578 162.027 32.1554C162.027 32.2469 162.048 32.3322 162.065 32.4193C162.082 32.5108 162.092 32.5988 162.127 32.6885C162.163 32.7712 162.21 32.8389 162.259 32.9164C162.31 32.9946 162.351 33.0738 162.418 33.1398C162.479 33.2049 162.558 33.2524 162.634 33.3087C162.695 33.3545 162.742 33.4116 162.811 33.4459C162.828 33.4539 162.848 33.4512 162.867 33.4574C162.884 33.4653 162.898 33.4838 162.917 33.4917L172.262 37.1082L174.825 38.9028C174.836 38.9107 174.851 38.9055 174.862 38.9151C174.884 38.9292 174.896 38.953 174.918 38.967L175.673 39.4122C175.888 39.5371 176.126 39.5969 176.358 39.5969C176.594 39.5969 176.823 39.5336 177.03 39.4139C177.101 39.3708 177.145 39.2908 177.208 39.2371C177.324 39.1395 177.451 39.0603 177.532 38.9213L178.36 37.5393L179.504 35.9285L180.785 34.2808L182.084 32.736L183.608 31.3698L185.177 30.0758L186.783 28.9363L188.491 28.0019L190.402 27.127L192.256 26.3835L194.191 25.7512L195.562 25.4549L203.615 31.7833L203.69 33.4319V35.464L203.588 37.5551L203.182 39.5556L202.767 41.5912L202.16 43.4765L201.425 45.528L200.621 47.2874L199.488 49.097L198.341 50.9242L197.113 52.5129L195.646 54.1351C195.644 54.1369 195.644 54.1369 195.641 54.1413C195.641 54.1413 195.635 54.143 195.635 54.1466C195.565 54.224 195.532 54.3199 195.48 54.4096C195.438 54.4809 195.384 54.5486 195.355 54.6243C195.318 54.7237 195.318 54.8266 195.309 54.9286C195.297 55.006 195.27 55.0852 195.272 55.1626C195.274 55.2682 195.315 55.3676 195.337 55.4714C195.359 55.5444 195.359 55.6219 195.394 55.694C195.432 55.7793 195.501 55.8523 195.562 55.9324C195.611 56.0036 195.642 56.0855 195.708 56.147C195.714 56.1488 195.714 56.1488 195.72 56.1532C195.72 56.1532 195.72 56.155 195.721 56.1594L202.915 62.9226L204.648 65.867C204.661 65.8873 204.684 65.8952 204.698 65.9128C204.715 65.9409 204.717 65.9726 204.737 65.9964C204.818 66.1019 204.928 66.1653 205.027 66.2409C205.086 66.2867 205.136 66.3482 205.199 66.3861C205.396 66.4916 205.612 66.555 205.832 66.555C206.078 66.555 206.323 66.4899 206.551 66.35C206.581 66.3306 206.596 66.299 206.626 66.2787C206.639 66.2673 206.658 66.2726 206.675 66.2611L208.002 65.2072L209.604 64.2809L209.606 64.2791L211.443 63.2727C211.443 63.2727 211.444 63.2666 211.449 63.2666C211.455 63.2604 211.46 63.2648 211.466 63.2604L213.274 62.2268L215.053 61.7157C215.061 61.7139 215.067 61.7077 215.078 61.7042C215.092 61.6981 215.105 61.7025 215.123 61.6963L216.99 61.0523L219.003 60.6362L220.954 60.426L222.993 60.3204L224.936 60.426L226.887 60.6362L228.373 60.9406L233.39 69.8997L233.022 71.331L232.224 73.1863L231.289 75.0011L230.244 76.8362L229.021 78.6256L227.789 80.2161L226.484 81.5621L224.895 82.9819C224.895 82.9819 224.895 82.9837 224.894 82.9881L223.277 84.4493L221.715 85.3519L219.79 86.346C219.782 86.3521 219.776 86.36 219.765 86.3636C219.757 86.3697 219.745 86.3697 219.737 86.3759L217.794 87.4913C217.719 87.5345 217.669 87.6022 217.607 87.6559C217.542 87.7157 217.466 87.7614 217.41 87.8336C217.353 87.9048 217.32 87.9866 217.275 88.0676C217.232 88.1476 217.185 88.225 217.156 88.3104C217.129 88.3957 217.125 88.4837 217.117 88.5752C217.104 88.6658 217.087 88.7537 217.092 88.8514C217.098 88.9429 217.135 89.0282 217.156 89.1153C217.177 89.1954 217.177 89.2789 217.214 89.3537L221.445 98.5239L222.062 102.548C222.068 102.576 222.083 102.6 222.089 102.622C222.095 102.644 222.087 102.669 222.095 102.689C222.1 102.711 222.122 102.721 222.128 102.743C222.148 102.806 222.166 102.868 222.193 102.928C222.235 103.019 222.288 103.101 222.351 103.182C222.388 103.236 222.409 103.295 222.453 103.347C222.472 103.367 222.5 103.373 222.519 103.393C222.536 103.411 222.557 103.42 222.576 103.439C222.596 103.456 222.621 103.464 222.64 103.478C222.648 103.486 222.66 103.491 222.667 103.499C222.752 103.556 222.831 103.617 222.928 103.652C223.086 103.715 223.247 103.751 223.423 103.751C223.494 103.751 223.57 103.745 223.641 103.733C223.658 103.731 223.674 103.719 223.691 103.713C223.722 103.707 223.748 103.711 223.782 103.701L225.374 103.266L227.415 102.844L229.32 102.639H233.317L235.224 103.055H235.235C235.235 103.055 235.238 103.057 235.241 103.057L237.362 103.493L239.179 104.013L241.114 104.678L242.9 105.393L244.581 106.413L245.773 107.26L247.123 117.686L246.179 118.811L244.719 120.207L243.274 121.542Z" fill="white"/>
</svg>
