<svg width="330" height="324" viewBox="0 0 330 324" fill="none" xmlns="http://www.w3.org/2000/svg">
<path d="M98.308 154.524H33.7503C32.6904 154.524 31.8312 153.569 31.8312 152.392C31.8312 151.214 32.6904 150.259 33.7503 150.259H98.308C99.3679 150.259 100.227 151.214 100.227 152.392C100.227 153.569 99.3679 154.524 98.308 154.524Z" fill="#6CADAD"/>
<path d="M98.308 172.285H33.7503C32.6904 172.285 31.8312 171.33 31.8312 170.152C31.8312 168.975 32.6904 168.02 33.7503 168.02L98.308 168.023C99.3679 168.023 100.227 168.978 100.227 170.155C100.227 171.33 99.3679 172.285 98.308 172.285Z" fill="#6CADAD"/>
<path d="M70.5087 190.586H33.7531C32.6931 190.586 31.8339 189.631 31.8339 188.453C31.8339 187.276 32.6931 186.321 33.7531 186.321H70.5087C71.5687 186.321 72.4279 187.276 72.4279 188.453C72.4252 189.631 71.566 190.586 70.5087 190.586Z" fill="#6CADAD"/>
<path d="M46.8482 136.421H33.7572C32.6972 136.421 31.838 135.466 31.838 134.288C31.838 133.111 32.6972 132.156 33.7572 132.156H46.8482C47.9082 132.156 48.7674 133.111 48.7674 134.288C48.7647 135.466 47.9055 136.421 46.8482 136.421Z" fill="#6CADAD"/>
<path d="M71.9477 232.053H32.9466C31.8866 232.053 31.0274 231.098 31.0274 229.92C31.0274 228.743 31.8866 227.788 32.9466 227.788L71.9477 227.791C73.0076 227.791 73.8668 228.746 73.8668 229.923C73.8668 231.098 73.0076 232.053 71.9477 232.053Z" fill="#6CADAD"/>
<path d="M123.75 232.053H84.7489C83.6889 232.053 82.8297 231.098 82.8297 229.92C82.8297 228.743 83.6889 227.788 84.7489 227.788L123.75 227.791C124.81 227.791 125.669 228.746 125.669 229.923C125.669 231.098 124.807 232.053 123.75 232.053Z" fill="#6CADAD"/>
<path d="M213.924 232.053H138.468C137.408 232.053 136.549 231.098 136.549 229.92C136.549 228.743 137.408 227.788 138.468 227.788L213.924 227.791C214.984 227.791 215.844 228.746 215.844 229.923C215.844 231.098 214.984 232.053 213.924 232.053Z" fill="#6CADAD"/>
<path d="M97.5062 249.821H32.9486C31.8886 249.821 31.0294 248.866 31.0294 247.689C31.0294 246.511 31.8886 245.556 32.9486 245.556H97.5062C98.5662 245.556 99.4254 246.511 99.4254 247.689C99.4254 248.866 98.5689 249.821 97.5062 249.821Z" fill="#6CADAD"/>
<path d="M170.749 249.821H106.191C105.131 249.821 104.272 248.866 104.272 247.689C104.272 246.511 105.131 245.556 106.191 245.556H170.749C171.809 245.556 172.668 246.511 172.668 247.689C172.665 248.866 171.806 249.821 170.749 249.821Z" fill="#6CADAD"/>
<path d="M246.205 249.821H181.647C180.587 249.821 179.728 248.866 179.728 247.689C179.728 246.511 180.587 245.556 181.647 245.556H246.205C247.265 245.556 248.124 246.511 248.124 247.689C248.124 248.866 247.265 249.821 246.205 249.821Z" fill="#6CADAD"/>
<path d="M106.195 268.114H32.952C31.8921 268.114 31.0329 267.16 31.0329 265.982C31.0329 264.805 31.8921 263.85 32.952 263.85H106.195C107.255 263.85 108.114 264.805 108.114 265.982C108.111 267.16 107.252 268.114 106.195 268.114Z" fill="#6CADAD"/>
<path d="M191.566 268.114H118.323C117.263 268.114 116.404 267.16 116.404 265.982C116.404 264.805 117.263 263.85 118.323 263.85H191.566C192.626 263.85 193.485 264.805 193.485 265.982C193.482 267.16 192.623 268.114 191.563 268.114H191.566Z" fill="#6CADAD"/>
<path d="M46.0396 213.949H32.9486C31.8886 213.949 31.0294 212.995 31.0294 211.817C31.0294 210.64 31.8886 209.685 32.9486 209.685H46.0396C47.0996 209.685 47.9588 210.64 47.9588 211.817C47.9561 212.995 47.0969 213.949 46.0396 213.949Z" fill="#6CADAD"/>
<path d="M46.0396 284.566H32.9486C31.8886 284.566 31.0294 283.611 31.0294 282.433C31.0294 281.256 31.8886 280.301 32.9486 280.301H46.0396C47.0996 280.301 47.9588 281.256 47.9588 282.433C47.9561 283.611 47.0969 284.566 46.0396 284.566Z" fill="#6CADAD"/>
<path d="M330 324H0V42.6309H330V324ZM7.67442 315.474H322.326L322.328 51.158H7.6771L7.67442 315.474Z" fill="#6CADAD"/>
<path d="M330 51.1572H0V11.9186C0 4.55855 6.72369 0 12.952 0H317.051C323.277 0 330 4.55878 330 11.9216V51.1572ZM7.67442 42.6317H322.326V11.9186C322.328 10.2414 319.665 8.52558 317.05 8.52558H12.9511C10.3387 8.52558 7.67552 10.2414 7.67552 11.9216L7.67442 42.6317Z" fill="#6CADAD"/>
<path d="M33.5756 24.6929C33.5756 28.3208 30.9257 31.2648 27.6602 31.2648C24.3921 31.2648 21.7422 28.3208 21.7422 24.6929C21.7422 21.0619 24.3921 18.1179 27.6602 18.1179C30.9257 18.1179 33.5756 21.0619 33.5756 24.6929Z" fill="#6CADAD"/>
<path d="M52.7616 24.6929C52.7616 28.3208 50.1118 31.2648 46.8463 31.2648C43.5782 31.2648 40.9283 28.3208 40.9283 24.6929C40.9283 21.0619 43.5782 18.1179 46.8463 18.1179C50.1118 18.1179 52.7616 21.0619 52.7616 24.6929Z" fill="#6CADAD"/>
<path d="M71.9477 24.6929C71.9477 28.3208 69.2978 31.2648 66.0323 31.2648C62.7642 31.2648 60.1143 28.3208 60.1143 24.6929C60.1143 21.0619 62.7642 18.1179 66.0323 18.1179C69.2978 18.1179 71.9477 21.0619 71.9477 24.6929Z" fill="#6CADAD"/>
<path d="M50.055 84.0598L37.0174 92.0532L50.055 100.047V105.792L28.7386 92.7756V91.1519L50.055 78.3114V84.0598Z" fill="#6CADAD"/>
<path d="M73.277 112.288H68.89L81.2102 74.7204H85.5972L73.277 112.288Z" fill="#6CADAD"/>
<path d="M105.701 78.3121L127.018 91.1526V92.7763L105.701 105.793V100.047L118.739 92.0539L105.701 84.0605V78.3121Z" fill="#6CADAD"/>
</svg>
